<?xml version="1.0" encoding="utf-8"?>
<!-- Generator: Adobe Illustrator 16.0.3, SVG Export Plug-In . SVG Version: 6.00 Build 0)  -->
<!DOCTYPE svg PUBLIC "-//W3C//DTD SVG 1.1//EN" "http://www.w3.org/Graphics/SVG/1.1/DTD/svg11.dtd" [
	<!ENTITY ns_flows "http://ns.adobe.com/Flows/1.0/">
	<!ENTITY ns_extend "http://ns.adobe.com/Extensibility/1.0/">
	<!ENTITY ns_ai "http://ns.adobe.com/AdobeIllustrator/10.0/">
	<!ENTITY ns_graphs "http://ns.adobe.com/Graphs/1.0/">
]>
<svg version="1.1" id="Capa_1" xmlns:x="&ns_extend;" xmlns:i="&ns_ai;" xmlns:graph="&ns_graphs;"
	 xmlns="http://www.w3.org/2000/svg" xmlns:xlink="http://www.w3.org/1999/xlink" xmlns:a="http://ns.adobe.com/AdobeSVGViewerExtensions/3.0/"
	 x="0px" y="0px" width="480px" height="87px" viewBox="0 0 480 87" enable-background="new 0 0 480 87" xml:space="preserve">
<g>
	<defs>
		<path id="SVGID_1_" d="M288.136,21.897L276.852,42.89l-10.793-20.698c0,0-6.505-10.053-20.007-10.841c0,0,5.716,4.14,7.194,6.111
			L276.9,61.911l23.556-44.055c0,0,5.223-5.914,7.194-6.505C307.65,11.351,295.724,11.45,288.136,21.897"/>
	</defs>
	<clipPath id="SVGID_2_">
		<use xlink:href="#SVGID_1_"  overflow="visible"/>
	</clipPath>
	
		<linearGradient id="SVGID_3_" gradientUnits="userSpaceOnUse" x1="-0.1782" y1="307.96" x2="0.8218" y2="307.96" gradientTransform="matrix(0 50.5602 50.5602 0 -15293.6758 20.3375)">
		<stop  offset="0" style="stop-color:#EED984"/>
		<stop  offset="0.1709" style="stop-color:#EED984"/>
		<stop  offset="0.3141" style="stop-color:#B98725"/>
		<stop  offset="0.3915" style="stop-color:#C4963A"/>
		<stop  offset="0.5502" style="stop-color:#DFBC6F"/>
		<stop  offset="0.6265" style="stop-color:#EDD08B"/>
		<stop  offset="0.8968" style="stop-color:#EDD08B"/>
		<stop  offset="0.9422" style="stop-color:#EDD08B"/>
		<stop  offset="1" style="stop-color:#EDD08B"/>
		<a:midPointStop  offset="0" style="stop-color:#EED984"/>
		<a:midPointStop  offset="0.5" style="stop-color:#EED984"/>
		<a:midPointStop  offset="0.1709" style="stop-color:#EED984"/>
		<a:midPointStop  offset="0.5" style="stop-color:#EED984"/>
		<a:midPointStop  offset="0.3141" style="stop-color:#B98725"/>
		<a:midPointStop  offset="0.5445" style="stop-color:#B98725"/>
		<a:midPointStop  offset="0.6265" style="stop-color:#EDD08B"/>
		<a:midPointStop  offset="0.8618" style="stop-color:#EDD08B"/>
		<a:midPointStop  offset="0.9422" style="stop-color:#EDD08B"/>
		<a:midPointStop  offset="0.5" style="stop-color:#EDD08B"/>
		<a:midPointStop  offset="1" style="stop-color:#EDD08B"/>
	</linearGradient>
	<rect x="246.052" y="11.351" clip-path="url(#SVGID_2_)" fill="url(#SVGID_3_)" width="61.599" height="50.56"/>
</g>
<g>
	<defs>
		<path id="SVGID_4_" d="M234.521,72.852h16.557l6.012-24.542c-9.856-0.197-15.375-6.406-15.375-6.406L234.521,72.852z"/>
	</defs>
	<clipPath id="SVGID_5_">
		<use xlink:href="#SVGID_4_"  overflow="visible"/>
	</clipPath>
	
		<linearGradient id="SVGID_6_" gradientUnits="userSpaceOnUse" x1="-0.2905" y1="307.9355" x2="0.7095" y2="307.9355" gradientTransform="matrix(0 30.9471 30.9471 0 -9283.9189 50.9002)">
		<stop  offset="0" style="stop-color:#EED984"/>
		<stop  offset="0.1709" style="stop-color:#EED984"/>
		<stop  offset="0.3141" style="stop-color:#B98725"/>
		<stop  offset="0.3915" style="stop-color:#C4963A"/>
		<stop  offset="0.5502" style="stop-color:#DFBC6F"/>
		<stop  offset="0.6265" style="stop-color:#EDD08B"/>
		<stop  offset="0.8968" style="stop-color:#EDD08B"/>
		<stop  offset="0.9422" style="stop-color:#EDD08B"/>
		<stop  offset="1" style="stop-color:#EDD08B"/>
		<a:midPointStop  offset="0" style="stop-color:#EED984"/>
		<a:midPointStop  offset="0.5" style="stop-color:#EED984"/>
		<a:midPointStop  offset="0.1709" style="stop-color:#EED984"/>
		<a:midPointStop  offset="0.5" style="stop-color:#EED984"/>
		<a:midPointStop  offset="0.3141" style="stop-color:#B98725"/>
		<a:midPointStop  offset="0.5445" style="stop-color:#B98725"/>
		<a:midPointStop  offset="0.6265" style="stop-color:#EDD08B"/>
		<a:midPointStop  offset="0.8618" style="stop-color:#EDD08B"/>
		<a:midPointStop  offset="0.9422" style="stop-color:#EDD08B"/>
		<a:midPointStop  offset="0.5" style="stop-color:#EDD08B"/>
		<a:midPointStop  offset="1" style="stop-color:#EDD08B"/>
	</linearGradient>
	<rect x="234.521" y="41.904" clip-path="url(#SVGID_5_)" fill="url(#SVGID_6_)" width="22.569" height="30.948"/>
</g>
<g>
	<defs>
		<path id="SVGID_7_" d="M300.751,47.62l6.308,25.231h16.36l-8.081-34.397C308.439,47.522,300.751,47.62,300.751,47.62"/>
	</defs>
	<clipPath id="SVGID_8_">
		<use xlink:href="#SVGID_7_"  overflow="visible"/>
	</clipPath>
	
		<linearGradient id="SVGID_9_" gradientUnits="userSpaceOnUse" x1="-0.2617" y1="307.9414" x2="0.7383" y2="307.9414" gradientTransform="matrix(0 34.3967 34.3967 0 -10280.1006 47.4572)">
		<stop  offset="0" style="stop-color:#EED984"/>
		<stop  offset="0.1709" style="stop-color:#EED984"/>
		<stop  offset="0.3141" style="stop-color:#B98725"/>
		<stop  offset="0.3915" style="stop-color:#C4963A"/>
		<stop  offset="0.5502" style="stop-color:#DFBC6F"/>
		<stop  offset="0.6265" style="stop-color:#EDD08B"/>
		<stop  offset="0.8968" style="stop-color:#EDD08B"/>
		<stop  offset="0.9422" style="stop-color:#EDD08B"/>
		<stop  offset="1" style="stop-color:#EDD08B"/>
		<a:midPointStop  offset="0" style="stop-color:#EED984"/>
		<a:midPointStop  offset="0.5" style="stop-color:#EED984"/>
		<a:midPointStop  offset="0.1709" style="stop-color:#EED984"/>
		<a:midPointStop  offset="0.5" style="stop-color:#EED984"/>
		<a:midPointStop  offset="0.3141" style="stop-color:#B98725"/>
		<a:midPointStop  offset="0.5445" style="stop-color:#B98725"/>
		<a:midPointStop  offset="0.6265" style="stop-color:#EDD08B"/>
		<a:midPointStop  offset="0.8618" style="stop-color:#EDD08B"/>
		<a:midPointStop  offset="0.9422" style="stop-color:#EDD08B"/>
		<a:midPointStop  offset="0.5" style="stop-color:#EDD08B"/>
		<a:midPointStop  offset="1" style="stop-color:#EDD08B"/>
	</linearGradient>
	<rect x="300.751" y="38.454" clip-path="url(#SVGID_8_)" fill="url(#SVGID_9_)" width="22.668" height="34.397"/>
</g>
<g>
	<defs>
		<path id="SVGID_10_" d="M217.371,11.795c0,0,4.509,8.723,15.08,9.683h19.145c0,0-2.292-6.357-11.457-9.683H217.371z"/>
	</defs>
	<clipPath id="SVGID_11_">
		<use xlink:href="#SVGID_10_"  overflow="visible"/>
	</clipPath>
	
		<linearGradient id="SVGID_12_" gradientUnits="userSpaceOnUse" x1="-0.9292" y1="307.793" x2="0.0708" y2="307.793" gradientTransform="matrix(0 9.6833 9.6833 0 -2745.9753 20.7912)">
		<stop  offset="0" style="stop-color:#D6D7D9"/>
		<stop  offset="0.5151" style="stop-color:#F3F3F4"/>
		<stop  offset="1" style="stop-color:#95979A"/>
		<a:midPointStop  offset="0" style="stop-color:#D6D7D9"/>
		<a:midPointStop  offset="0.5" style="stop-color:#D6D7D9"/>
		<a:midPointStop  offset="0.5151" style="stop-color:#F3F3F4"/>
		<a:midPointStop  offset="0.5" style="stop-color:#F3F3F4"/>
		<a:midPointStop  offset="1" style="stop-color:#95979A"/>
	</linearGradient>
	<rect x="217.371" y="11.795" clip-path="url(#SVGID_11_)" fill="url(#SVGID_12_)" width="34.225" height="9.683"/>
</g>
<g>
	<defs>
		<path id="SVGID_13_" d="M295.33,35.202l-18.479,31.835l-17.987-31.835h-17.642c6.9,10.644,16.755,8.87,16.755,8.87l18.874,31.54
			l18.872-31.243c11.927,0.198,16.56-9.166,16.56-9.166H295.33z"/>
	</defs>
	<clipPath id="SVGID_14_">
		<use xlink:href="#SVGID_13_"  overflow="visible"/>
	</clipPath>
	
		<linearGradient id="SVGID_15_" gradientUnits="userSpaceOnUse" x1="-0.2222" y1="307.9502" x2="0.7778" y2="307.9502" gradientTransform="matrix(0 40.4087 40.4087 0 -12167.1104 44.2003)">
		<stop  offset="0" style="stop-color:#D6D7D9"/>
		<stop  offset="0.5151" style="stop-color:#F3F3F4"/>
		<stop  offset="1" style="stop-color:#95979A"/>
		<a:midPointStop  offset="0" style="stop-color:#D6D7D9"/>
		<a:midPointStop  offset="0.5" style="stop-color:#D6D7D9"/>
		<a:midPointStop  offset="0.5151" style="stop-color:#F3F3F4"/>
		<a:midPointStop  offset="0.5" style="stop-color:#F3F3F4"/>
		<a:midPointStop  offset="1" style="stop-color:#95979A"/>
	</linearGradient>
	<rect x="241.222" y="35.202" clip-path="url(#SVGID_14_)" fill="url(#SVGID_15_)" width="71.061" height="40.409"/>
</g>
<g>
	<defs>
		<path id="SVGID_16_" d="M229.691,23.966c0,0,3.726,7.813,12.463,8.674h15.824c0,0-1.895-5.694-9.47-8.674H229.691z"/>
	</defs>
	<clipPath id="SVGID_17_">
		<use xlink:href="#SVGID_16_"  overflow="visible"/>
	</clipPath>
	
		<linearGradient id="SVGID_18_" gradientUnits="userSpaceOnUse" x1="-1.0381" y1="307.7695" x2="-0.0381" y2="307.7695" gradientTransform="matrix(0 8.6731 8.6731 0 -2425.4766 32.9628)">
		<stop  offset="0" style="stop-color:#D6D7D9"/>
		<stop  offset="0.5151" style="stop-color:#F3F3F4"/>
		<stop  offset="1" style="stop-color:#95979A"/>
		<a:midPointStop  offset="0" style="stop-color:#D6D7D9"/>
		<a:midPointStop  offset="0.5" style="stop-color:#D6D7D9"/>
		<a:midPointStop  offset="0.5151" style="stop-color:#F3F3F4"/>
		<a:midPointStop  offset="0.5" style="stop-color:#F3F3F4"/>
		<a:midPointStop  offset="1" style="stop-color:#95979A"/>
	</linearGradient>
	<rect x="229.691" y="23.966" clip-path="url(#SVGID_17_)" fill="url(#SVGID_18_)" width="28.287" height="8.674"/>
</g>
<g>
	<defs>
		<path id="SVGID_19_" d="M305.331,23.966c-7.575,2.98-9.469,8.674-9.469,8.674h15.822c8.736-0.861,12.464-8.674,12.464-8.674
			H305.331z"/>
	</defs>
	<clipPath id="SVGID_20_">
		<use xlink:href="#SVGID_19_"  overflow="visible"/>
	</clipPath>
	
		<linearGradient id="SVGID_21_" gradientUnits="userSpaceOnUse" x1="-1.0381" y1="307.7695" x2="-0.0381" y2="307.7695" gradientTransform="matrix(0 8.6731 8.6731 0 -2359.3047 32.9628)">
		<stop  offset="0" style="stop-color:#D6D7D9"/>
		<stop  offset="0.5151" style="stop-color:#F3F3F4"/>
		<stop  offset="1" style="stop-color:#95979A"/>
		<a:midPointStop  offset="0" style="stop-color:#D6D7D9"/>
		<a:midPointStop  offset="0.5" style="stop-color:#D6D7D9"/>
		<a:midPointStop  offset="0.5151" style="stop-color:#F3F3F4"/>
		<a:midPointStop  offset="0.5" style="stop-color:#F3F3F4"/>
		<a:midPointStop  offset="1" style="stop-color:#95979A"/>
	</linearGradient>
	<rect x="295.862" y="23.966" clip-path="url(#SVGID_20_)" fill="url(#SVGID_21_)" width="28.286" height="8.674"/>
</g>
<g>
	<defs>
		<path id="SVGID_22_" d="M313.638,11.721c-9.166,3.326-11.458,9.683-11.458,9.683h19.146c10.571-0.961,15.079-9.683,15.079-9.683
			H313.638z"/>
	</defs>
	<clipPath id="SVGID_23_">
		<use xlink:href="#SVGID_22_"  overflow="visible"/>
	</clipPath>
	
		<linearGradient id="SVGID_24_" gradientUnits="userSpaceOnUse" x1="-0.9297" y1="307.793" x2="0.0703" y2="307.793" gradientTransform="matrix(0 9.6833 9.6833 0 -2661.1628 20.7209)">
		<stop  offset="0" style="stop-color:#D6D7D9"/>
		<stop  offset="0.5151" style="stop-color:#F3F3F4"/>
		<stop  offset="1" style="stop-color:#95979A"/>
		<a:midPointStop  offset="0" style="stop-color:#D6D7D9"/>
		<a:midPointStop  offset="0.5" style="stop-color:#D6D7D9"/>
		<a:midPointStop  offset="0.5151" style="stop-color:#F3F3F4"/>
		<a:midPointStop  offset="0.5" style="stop-color:#F3F3F4"/>
		<a:midPointStop  offset="1" style="stop-color:#95979A"/>
	</linearGradient>
	<rect x="302.18" y="11.721" clip-path="url(#SVGID_23_)" fill="url(#SVGID_24_)" width="34.225" height="9.683"/>
</g>
<g>
	<defs>
		<rect id="SVGID_25_" x="-2" y="-201" width="500" height="500"/>
	</defs>
	<clipPath id="SVGID_26_">
		<use xlink:href="#SVGID_25_"  overflow="visible"/>
	</clipPath>
	<path clip-path="url(#SVGID_26_)" fill="#4C4C50" d="M52.788,53.438c0,6.347-4.263,9.787-9.109,10.369
		c-1.696,0.194-3.004,0.242-4.99,0.242H34.23v12.21h-7.607V42.828h12.065c1.986,0,3.294,0.048,4.99,0.242
		C48.669,43.651,52.788,47.092,52.788,53.438 M44.841,53.438c0-2.857-1.502-4.264-3.779-4.554c-0.679-0.097-1.599-0.097-2.665-0.097
		H34.23v9.302h4.167c1.066,0,1.986,0,2.665-0.098C43.339,57.702,44.841,56.298,44.841,53.438"/>
	<polygon clip-path="url(#SVGID_26_)" fill="#4C4C50" points="82.099,76.26 57.292,76.26 57.292,42.828 64.898,42.828 
		64.898,69.863 82.099,69.863 	"/>
	<path clip-path="url(#SVGID_26_)" fill="#4C4C50" d="M94.646,66.811l-3.101,9.449h-8.091l12.065-33.432h9.399l11.92,33.432h-8.237
		l-3.053-9.449H94.646z M96.536,60.852h7.123l-3.538-11.435L96.536,60.852z"/>
	<polygon clip-path="url(#SVGID_26_)" fill="#4C4C50" points="132.534,48.739 132.534,76.26 124.975,76.26 124.975,48.739 
		113.831,48.739 113.831,42.828 143.678,42.828 143.678,48.739 	"/>
	<rect x="147.407" y="42.828" clip-path="url(#SVGID_26_)" fill="#4C4C50" width="7.607" height="33.432"/>
	<path clip-path="url(#SVGID_26_)" fill="#4C4C50" d="M182.437,76.26l-13.082-23.936c0.242,3.537,0.29,6.978,0.29,9.4V76.26h-7.607
		V42.828h9.74l13.469,24.614c-0.193-3.488-0.242-7.268-0.242-9.738V42.828h7.559V76.26H182.437z"/>
	<path clip-path="url(#SVGID_26_)" fill="#4C4C50" d="M227.592,62.16c0,1.55,0,2.52-0.145,4.264
		c-0.388,5.62-4.313,10.515-14.1,10.515c-9.788,0-13.712-4.895-14.148-10.515c-0.097-1.744-0.097-2.714-0.097-4.264V42.828h7.558
		v20.447c0,0.92,0,1.55,0.049,2.228c0.291,3.634,2.471,5.815,6.638,5.815s6.347-2.182,6.59-5.815
		c0.096-0.678,0.096-1.308,0.096-2.228V42.828h7.559V62.16z"/>
	<path clip-path="url(#SVGID_26_)" fill="#4C4D51" d="M362.383,61.052c0,10.562-6.444,17.394-16.765,17.394
		c-10.369,0-16.812-6.832-16.812-17.394c0-10.611,6.442-17.395,16.812-17.395C355.938,43.657,362.383,50.44,362.383,61.052
		 M354.533,61.052c0-7.511-3.392-11.773-8.915-11.773c-5.572,0-8.964,4.263-8.964,11.773c0,7.462,3.392,11.772,8.964,11.772
		C351.142,72.824,354.533,68.514,354.533,61.052"/>
	<polygon clip-path="url(#SVGID_26_)" fill="#4C4D51" points="381.907,50.247 381.907,77.767 374.35,77.767 374.35,50.247 
		363.205,50.247 363.205,44.336 393.051,44.336 393.051,50.247 	"/>
	<path clip-path="url(#SVGID_26_)" fill="#4C4D51" d="M427.838,61.052c0,10.562-6.444,17.394-16.764,17.394
		c-10.369,0-16.813-6.832-16.813-17.394c0-10.611,6.443-17.395,16.813-17.395C421.394,43.657,427.838,50.44,427.838,61.052
		 M419.989,61.052c0-7.511-3.393-11.773-8.915-11.773c-5.572,0-8.965,4.263-8.965,11.773c0,7.462,3.393,11.772,8.965,11.772
		C416.597,72.824,419.989,68.514,419.989,61.052"/>
	<path clip-path="url(#SVGID_26_)" fill="#4C4D51" d="M460.929,77.767h-8.285c-0.824-2.326-1.308-4.312-1.599-7.122
		c-0.437-3.634-1.841-5.766-4.361-5.96c-0.92-0.048-1.744-0.048-2.665-0.048h-3.003v13.13h-7.607V44.336h12.694
		c1.986,0,3.295,0.049,5.039,0.242c4.845,0.582,8.866,3.004,8.866,8.867c0,4.265-2.422,7.025-6.638,8.237
		c3.392,1.259,4.699,3.924,5.088,7.8C458.894,73.405,459.571,75.829,460.929,77.767 M444.939,59.064c1.066,0,1.891,0,2.568-0.048
		c2.471-0.243,4.554-1.308,4.554-4.361c0-3.052-1.793-4.021-4.263-4.312c-0.679-0.048-1.502-0.097-2.568-0.097h-4.215v8.817H444.939
		z"/>
</g>
<g>
	<defs>
		<path id="SVGID_27_" d="M35.158,45.379h4.167c1.067,0,1.988,0,2.665,0.096c2.278,0.291,3.78,1.697,3.78,4.555
			s-1.502,4.264-3.78,4.554c-0.677,0.098-1.598,0.098-2.665,0.098h-4.167V45.379z M27.551,39.419v33.433h7.607V60.641h4.458
			c1.987,0,3.295-0.048,4.991-0.241c4.845-0.581,9.109-4.022,9.109-10.369c0-6.347-4.118-9.787-9.109-10.369
			c-1.696-0.193-3.004-0.242-4.991-0.242H27.551z"/>
	</defs>
	<clipPath id="SVGID_28_">
		<use xlink:href="#SVGID_27_"  overflow="visible"/>
	</clipPath>
	
		<linearGradient id="SVGID_29_" gradientUnits="userSpaceOnUse" x1="-0.2686" y1="308.1406" x2="0.7318" y2="308.1406" gradientTransform="matrix(16.3783 28.368 28.368 -16.3783 -8706.835 5092.3687)">
		<stop  offset="0" style="stop-color:#D6D7D9"/>
		<stop  offset="0.5151" style="stop-color:#FFFFFF"/>
		<stop  offset="1" style="stop-color:#95979A"/>
		<a:midPointStop  offset="0" style="stop-color:#D6D7D9"/>
		<a:midPointStop  offset="0.5" style="stop-color:#D6D7D9"/>
		<a:midPointStop  offset="0.5151" style="stop-color:#FFFFFF"/>
		<a:midPointStop  offset="0.5" style="stop-color:#FFFFFF"/>
		<a:midPointStop  offset="1" style="stop-color:#95979A"/>
	</linearGradient>
	<polygon clip-path="url(#SVGID_28_)" fill="url(#SVGID_29_)" points="47.175,28.089 68.193,64.494 34.092,84.182 13.074,47.777 	
		"/>
</g>
<g>
	<defs>
		<polygon id="SVGID_30_" points="58.22,39.419 58.22,72.852 83.027,72.852 83.027,66.455 65.827,66.455 65.827,39.419 		"/>
	</defs>
	<clipPath id="SVGID_31_">
		<use xlink:href="#SVGID_30_"  overflow="visible"/>
	</clipPath>
	
		<linearGradient id="SVGID_32_" gradientUnits="userSpaceOnUse" x1="-0.2119" y1="308.2305" x2="0.7881" y2="308.2305" gradientTransform="matrix(20.6785 35.8162 35.8162 -20.6785 -10974.9375 6419.5713)">
		<stop  offset="0" style="stop-color:#D6D7D9"/>
		<stop  offset="0.5151" style="stop-color:#FFFFFF"/>
		<stop  offset="1" style="stop-color:#95979A"/>
		<a:midPointStop  offset="0" style="stop-color:#D6D7D9"/>
		<a:midPointStop  offset="0.5" style="stop-color:#D6D7D9"/>
		<a:midPointStop  offset="0.5151" style="stop-color:#FFFFFF"/>
		<a:midPointStop  offset="0.5" style="stop-color:#FFFFFF"/>
		<a:midPointStop  offset="1" style="stop-color:#95979A"/>
	</linearGradient>
	<polygon clip-path="url(#SVGID_31_)" fill="url(#SVGID_32_)" points="76.825,28.677 97.504,64.494 64.422,83.594 43.743,47.777 	
		"/>
</g>
<g>
	<defs>
		<path id="SVGID_33_" d="M101.05,46.008l3.537,11.437h-7.123L101.05,46.008z M96.447,39.419L84.382,72.852h8.092l3.1-9.448h10.902
			l3.053,9.448h8.237l-11.919-33.433H96.447z"/>
	</defs>
	<clipPath id="SVGID_34_">
		<use xlink:href="#SVGID_33_"  overflow="visible"/>
	</clipPath>
	
		<linearGradient id="SVGID_35_" gradientUnits="userSpaceOnUse" x1="-0.2222" y1="308.2002" x2="0.7778" y2="308.2002" gradientTransform="matrix(19.8063 34.3055 34.3055 -19.8063 -10475.9092 6153.5215)">
		<stop  offset="0" style="stop-color:#D6D7D9"/>
		<stop  offset="0.5151" style="stop-color:#FFFFFF"/>
		<stop  offset="1" style="stop-color:#95979A"/>
		<a:midPointStop  offset="0" style="stop-color:#D6D7D9"/>
		<a:midPointStop  offset="0.5" style="stop-color:#D6D7D9"/>
		<a:midPointStop  offset="0.5151" style="stop-color:#FFFFFF"/>
		<a:midPointStop  offset="0.5" style="stop-color:#FFFFFF"/>
		<a:midPointStop  offset="1" style="stop-color:#95979A"/>
	</linearGradient>
	<polygon clip-path="url(#SVGID_34_)" fill="url(#SVGID_35_)" points="109.42,24.963 132.243,64.494 92.728,87.308 69.905,47.777 	
		"/>
</g>
<g>
	<defs>
		<polygon id="SVGID_36_" points="114.76,39.419 114.76,45.331 125.904,45.331 125.904,72.852 133.463,72.852 133.463,45.331 
			144.606,45.331 144.606,39.419 		"/>
	</defs>
	<clipPath id="SVGID_37_">
		<use xlink:href="#SVGID_36_"  overflow="visible"/>
	</clipPath>
	
		<linearGradient id="SVGID_38_" gradientUnits="userSpaceOnUse" x1="-0.2295" y1="307.9473" x2="0.7705" y2="307.9473" gradientTransform="matrix(19.1522 33.1726 33.1726 -19.1522 -10092.2432 5942.6006)">
		<stop  offset="0" style="stop-color:#D6D7D9"/>
		<stop  offset="0.5151" style="stop-color:#FFFFFF"/>
		<stop  offset="1" style="stop-color:#95979A"/>
		<a:midPointStop  offset="0" style="stop-color:#D6D7D9"/>
		<a:midPointStop  offset="0.5" style="stop-color:#D6D7D9"/>
		<a:midPointStop  offset="0.5151" style="stop-color:#FFFFFF"/>
		<a:midPointStop  offset="0.5" style="stop-color:#FFFFFF"/>
		<a:midPointStop  offset="1" style="stop-color:#95979A"/>
	</linearGradient>
	<polygon clip-path="url(#SVGID_37_)" fill="url(#SVGID_38_)" points="137.145,26.495 159.083,64.494 122.222,85.775 
		100.283,47.777 	"/>
</g>
<g>
	<defs>
		<rect id="SVGID_39_" x="148.336" y="39.42" width="7.607" height="33.432"/>
	</defs>
	<clipPath id="SVGID_40_">
		<use xlink:href="#SVGID_39_"  overflow="visible"/>
	</clipPath>
	
		<linearGradient id="SVGID_41_" gradientUnits="userSpaceOnUse" x1="-0.269" y1="308.085" x2="0.731" y2="308.085" gradientTransform="matrix(16.3783 28.368 28.368 -16.3783 -8591.3975 5095.4624)">
		<stop  offset="0" style="stop-color:#D6D7D9"/>
		<stop  offset="0.5151" style="stop-color:#FFFFFF"/>
		<stop  offset="1" style="stop-color:#95979A"/>
		<a:midPointStop  offset="0" style="stop-color:#D6D7D9"/>
		<a:midPointStop  offset="0.5" style="stop-color:#D6D7D9"/>
		<a:midPointStop  offset="0.5151" style="stop-color:#FFFFFF"/>
		<a:midPointStop  offset="0.5" style="stop-color:#FFFFFF"/>
		<a:midPointStop  offset="1" style="stop-color:#95979A"/>
	</linearGradient>
	<polygon clip-path="url(#SVGID_40_)" fill="url(#SVGID_41_)" points="154.041,36.126 170.419,64.494 150.238,76.146 
		133.859,47.778 	"/>
</g>
<g>
	<defs>
		<path id="SVGID_42_" d="M185.934,39.419v14.875c0,2.471,0.048,6.25,0.242,9.739l-13.47-24.614h-9.739v33.433h7.607V58.316
			c0-2.424-0.049-5.863-0.291-9.4l13.083,23.936h10.127V39.419H185.934z"/>
	</defs>
	<clipPath id="SVGID_43_">
		<use xlink:href="#SVGID_42_"  overflow="visible"/>
	</clipPath>
	
		<linearGradient id="SVGID_44_" gradientUnits="userSpaceOnUse" x1="-0.1997" y1="308.0625" x2="0.8003" y2="308.0625" gradientTransform="matrix(22.1078 38.2919 38.2919 -22.1078 -11624.7168 6855.2031)">
		<stop  offset="0" style="stop-color:#D6D7D9"/>
		<stop  offset="0.5151" style="stop-color:#FFFFFF"/>
		<stop  offset="1" style="stop-color:#95979A"/>
		<a:midPointStop  offset="0" style="stop-color:#D6D7D9"/>
		<a:midPointStop  offset="0.5" style="stop-color:#D6D7D9"/>
		<a:midPointStop  offset="0.5151" style="stop-color:#FFFFFF"/>
		<a:midPointStop  offset="0.5" style="stop-color:#FFFFFF"/>
		<a:midPointStop  offset="1" style="stop-color:#95979A"/>
	</linearGradient>
	<polygon clip-path="url(#SVGID_43_)" fill="url(#SVGID_44_)" points="185.861,26.201 207.97,64.494 170.599,86.07 148.49,47.777 	
		"/>
</g>
<g>
	<defs>
		<path id="SVGID_45_" d="M220.962,39.419v20.447c0,0.92,0,1.551-0.097,2.229c-0.242,3.634-2.423,5.814-6.59,5.814
			s-6.346-2.181-6.637-5.814c-0.049-0.678-0.049-1.309-0.049-2.229V39.419h-7.559v19.332c0,1.551,0,2.521,0.097,4.265
			c0.437,5.62,4.361,10.515,14.148,10.515c9.788,0,13.713-4.895,14.101-10.515c0.145-1.744,0.145-2.714,0.145-4.265V39.419H220.962z
			"/>
	</defs>
	<clipPath id="SVGID_46_">
		<use xlink:href="#SVGID_45_"  overflow="visible"/>
	</clipPath>
	
		<linearGradient id="SVGID_47_" gradientUnits="userSpaceOnUse" x1="-0.2227" y1="308.0176" x2="0.7773" y2="308.0176" gradientTransform="matrix(19.7003 34.1219 34.1219 -19.7003 -10302.4297 6113.1665)">
		<stop  offset="0" style="stop-color:#D6D7D9"/>
		<stop  offset="0.5151" style="stop-color:#FFFFFF"/>
		<stop  offset="1" style="stop-color:#95979A"/>
		<a:midPointStop  offset="0" style="stop-color:#D6D7D9"/>
		<a:midPointStop  offset="0.5" style="stop-color:#D6D7D9"/>
		<a:midPointStop  offset="0.5151" style="stop-color:#FFFFFF"/>
		<a:midPointStop  offset="0.5" style="stop-color:#FFFFFF"/>
		<a:midPointStop  offset="1" style="stop-color:#95979A"/>
	</linearGradient>
	<polygon clip-path="url(#SVGID_46_)" fill="url(#SVGID_47_)" points="221.398,27.082 243.292,65.002 207.153,85.867 
		185.259,47.947 	"/>
</g>
<g>
	<defs>
		<path id="SVGID_48_" d="M337.26,57.398c0-7.511,3.393-11.774,8.964-11.774c5.524,0,8.915,4.264,8.915,11.774
			c0,7.461-3.391,11.773-8.915,11.773C340.652,69.172,337.26,64.859,337.26,57.398 M329.411,57.398
			c0,10.562,6.444,17.393,16.813,17.393c10.321,0,16.765-6.831,16.765-17.393c0-10.611-6.443-17.396-16.765-17.396
			C335.855,40.003,329.411,46.787,329.411,57.398"/>
	</defs>
	<clipPath id="SVGID_49_">
		<use xlink:href="#SVGID_48_"  overflow="visible"/>
	</clipPath>
	
		<linearGradient id="SVGID_50_" gradientUnits="userSpaceOnUse" x1="-0.2485" y1="308.0781" x2="0.7511" y2="308.0781" gradientTransform="matrix(17.6713 30.6077 30.6077 -17.6713 -9087.7998 5493.8652)">
		<stop  offset="0" style="stop-color:#D6D7D9"/>
		<stop  offset="0.5151" style="stop-color:#FFFFFF"/>
		<stop  offset="1" style="stop-color:#DDDEDF"/>
		<a:midPointStop  offset="0" style="stop-color:#D6D7D9"/>
		<a:midPointStop  offset="0.5" style="stop-color:#D6D7D9"/>
		<a:midPointStop  offset="0.5151" style="stop-color:#FFFFFF"/>
		<a:midPointStop  offset="0.5" style="stop-color:#FFFFFF"/>
		<a:midPointStop  offset="1" style="stop-color:#DDDEDF"/>
	</linearGradient>
	<polygon clip-path="url(#SVGID_49_)" fill="url(#SVGID_50_)" points="354.594,25.464 378.052,66.094 337.806,89.33 314.348,48.7 	
		"/>
</g>
<g>
	<defs>
		<polygon id="SVGID_51_" points="363.81,40.682 363.81,46.593 374.954,46.593 374.954,74.113 382.513,74.113 382.513,46.593 
			393.656,46.593 393.656,40.682 		"/>
	</defs>
	<clipPath id="SVGID_52_">
		<use xlink:href="#SVGID_51_"  overflow="visible"/>
	</clipPath>
	
		<linearGradient id="SVGID_53_" gradientUnits="userSpaceOnUse" x1="-0.23" y1="307.9453" x2="0.77" y2="307.9453" gradientTransform="matrix(19.1516 33.1716 33.1716 -19.1516 -9842.8857 5943.6826)">
		<stop  offset="0" style="stop-color:#D6D7D9"/>
		<stop  offset="0.5151" style="stop-color:#FFFFFF"/>
		<stop  offset="1" style="stop-color:#DDDEDF"/>
		<a:midPointStop  offset="0" style="stop-color:#D6D7D9"/>
		<a:midPointStop  offset="0.5" style="stop-color:#D6D7D9"/>
		<a:midPointStop  offset="0.5151" style="stop-color:#FFFFFF"/>
		<a:midPointStop  offset="0.5" style="stop-color:#FFFFFF"/>
		<a:midPointStop  offset="1" style="stop-color:#DDDEDF"/>
	</linearGradient>
	<polygon clip-path="url(#SVGID_52_)" fill="url(#SVGID_53_)" points="386.194,27.758 408.132,65.755 371.271,87.037 349.334,49.04 
			"/>
</g>
<g>
	<defs>
		<path id="SVGID_54_" d="M402.716,57.398c0-7.511,3.393-11.774,8.964-11.774c5.523,0,8.915,4.264,8.915,11.774
			c0,7.461-3.392,11.773-8.915,11.773C406.108,69.172,402.716,64.859,402.716,57.398 M394.868,57.398
			c0,10.562,6.442,17.393,16.812,17.393c10.32,0,16.764-6.831,16.764-17.393c0-10.611-6.443-17.396-16.764-17.396
			C401.311,40.003,394.868,46.787,394.868,57.398"/>
	</defs>
	<clipPath id="SVGID_55_">
		<use xlink:href="#SVGID_54_"  overflow="visible"/>
	</clipPath>
	
		<linearGradient id="SVGID_56_" gradientUnits="userSpaceOnUse" x1="-0.249" y1="308.0781" x2="0.7513" y2="308.0781" gradientTransform="matrix(17.6713 30.6077 30.6077 -17.6713 -9022.3311 5493.8652)">
		<stop  offset="0" style="stop-color:#D6D7D9"/>
		<stop  offset="0.5151" style="stop-color:#FFFFFF"/>
		<stop  offset="1" style="stop-color:#DDDEDF"/>
		<a:midPointStop  offset="0" style="stop-color:#D6D7D9"/>
		<a:midPointStop  offset="0.5" style="stop-color:#D6D7D9"/>
		<a:midPointStop  offset="0.5151" style="stop-color:#FFFFFF"/>
		<a:midPointStop  offset="0.5" style="stop-color:#FFFFFF"/>
		<a:midPointStop  offset="1" style="stop-color:#DDDEDF"/>
	</linearGradient>
	<polygon clip-path="url(#SVGID_55_)" fill="url(#SVGID_56_)" points="420.049,25.465 443.507,66.094 403.262,89.329 379.805,48.7 	
		"/>
</g>
<g>
	<defs>
		<path id="SVGID_57_" d="M441.621,46.593h4.215c1.066,0,1.889,0.049,2.568,0.096c2.471,0.291,4.263,1.261,4.263,4.313
			s-2.083,4.119-4.554,4.361c-0.679,0.048-1.502,0.048-2.567,0.048h-3.925V46.593z M434.014,40.682v33.431h7.607v-13.13h3.004
			c0.921,0,1.744,0,2.665,0.048c2.519,0.193,3.924,2.326,4.36,5.96c0.291,2.81,0.774,4.797,1.599,7.122h8.285
			c-1.357-1.938-2.035-4.361-2.47-8.285c-0.389-3.876-1.697-6.541-5.089-7.8c4.216-1.212,6.638-3.975,6.638-8.237
			c0-5.863-4.021-8.285-8.866-8.867c-1.744-0.193-3.052-0.242-5.039-0.242H434.014z"/>
	</defs>
	<clipPath id="SVGID_58_">
		<use xlink:href="#SVGID_57_"  overflow="visible"/>
	</clipPath>
	
		<linearGradient id="SVGID_59_" gradientUnits="userSpaceOnUse" x1="-0.2056" y1="308.1113" x2="0.7944" y2="308.1113" gradientTransform="matrix(21.3561 36.9899 36.9899 -21.3561 -10955.5156 6626.5884)">
		<stop  offset="0" style="stop-color:#D6D7D9"/>
		<stop  offset="0.5151" style="stop-color:#FFFFFF"/>
		<stop  offset="1" style="stop-color:#DDDEDF"/>
		<a:midPointStop  offset="0" style="stop-color:#D6D7D9"/>
		<a:midPointStop  offset="0.5" style="stop-color:#D6D7D9"/>
		<a:midPointStop  offset="0.5151" style="stop-color:#FFFFFF"/>
		<a:midPointStop  offset="0.5" style="stop-color:#FFFFFF"/>
		<a:midPointStop  offset="1" style="stop-color:#DDDEDF"/>
	</linearGradient>
	<polygon clip-path="url(#SVGID_58_)" fill="url(#SVGID_59_)" points="454.654,28.766 476.01,65.755 440.894,86.029 419.538,49.04 	
		"/>
</g>
<g>
	<defs>
		<path id="SVGID_60_" d="M328.543,14.505c-3.281,2.357-4.344,5.221-4.344,5.221s3.25-0.038,6.46-2.376
			c3.211-2.336,4.329-5.013,4.329-5.013s-0.061-0.004-0.171-0.004C334.118,12.333,331.375,12.472,328.543,14.505"/>
	</defs>
	<clipPath id="SVGID_61_">
		<use xlink:href="#SVGID_60_"  overflow="visible"/>
	</clipPath>
	
		<linearGradient id="SVGID_62_" gradientUnits="userSpaceOnUse" x1="-0.272" y1="307.29" x2="0.7285" y2="307.29" gradientTransform="matrix(-10.6883 7.5342 6.8372 9.6995 -1768.967 -2966.2644)">
		<stop  offset="0" style="stop-color:#989A9D"/>
		<stop  offset="0.0159" style="stop-color:#96989B"/>
		<stop  offset="0.3229" style="stop-color:#6C6D71"/>
		<stop  offset="0.6" style="stop-color:#4D4E53"/>
		<stop  offset="0.8351" style="stop-color:#3B3C41"/>
		<stop  offset="1" style="stop-color:#34353A"/>
		<a:midPointStop  offset="0" style="stop-color:#989A9D"/>
		<a:midPointStop  offset="0.3691" style="stop-color:#989A9D"/>
		<a:midPointStop  offset="1" style="stop-color:#34353A"/>
	</linearGradient>
	<polygon clip-path="url(#SVGID_61_)" fill="url(#SVGID_62_)" points="338.47,17.272 327.78,24.807 320.718,14.787 331.406,7.252 	
		"/>
</g>
<g>
	<defs>
		<path id="SVGID_63_" d="M316.653,26.755c-3.06,2.196-4.051,4.867-4.051,4.867s3.03-0.036,6.023-2.215
			c2.993-2.179,4.035-4.675,4.035-4.675s-0.055-0.003-0.157-0.003C321.854,24.729,319.295,24.858,316.653,26.755"/>
	</defs>
	<clipPath id="SVGID_64_">
		<use xlink:href="#SVGID_63_"  overflow="visible"/>
	</clipPath>
	
		<linearGradient id="SVGID_65_" gradientUnits="userSpaceOnUse" x1="-0.291" y1="307.2373" x2="0.709" y2="307.2373" gradientTransform="matrix(-9.9642 7.0238 6.3741 9.0425 -1638.6365 -2751.4836)">
		<stop  offset="0" style="stop-color:#989A9D"/>
		<stop  offset="0.0159" style="stop-color:#96989B"/>
		<stop  offset="0.3229" style="stop-color:#6C6D71"/>
		<stop  offset="0.6" style="stop-color:#4D4E53"/>
		<stop  offset="0.8351" style="stop-color:#3B3C41"/>
		<stop  offset="1" style="stop-color:#34353A"/>
		<a:midPointStop  offset="0" style="stop-color:#989A9D"/>
		<a:midPointStop  offset="0.3691" style="stop-color:#989A9D"/>
		<a:midPointStop  offset="1" style="stop-color:#34353A"/>
	</linearGradient>
	<polygon clip-path="url(#SVGID_64_)" fill="url(#SVGID_65_)" points="325.907,29.334 315.941,36.358 309.357,27.017 
		319.322,19.993 	"/>
</g>
<g>
	<defs>
		<path id="SVGID_66_" d="M304.797,37.785c-3.213,2.063-4.356,4.715-4.356,4.715s3.068,0.123,6.215-1.925
			c3.146-2.048,4.334-4.521,4.334-4.521s-0.177-0.019-0.49-0.019C309.525,36.034,307.229,36.224,304.797,37.785"/>
	</defs>
	<clipPath id="SVGID_67_">
		<use xlink:href="#SVGID_66_"  overflow="visible"/>
	</clipPath>
	
		<linearGradient id="SVGID_68_" gradientUnits="userSpaceOnUse" x1="-0.252" y1="307.2373" x2="0.748" y2="307.2373" gradientTransform="matrix(-10.4615 6.5866 5.9773 9.4938 -1528.1012 -2879.1729)">
		<stop  offset="0" style="stop-color:#989A9D"/>
		<stop  offset="0.0159" style="stop-color:#96989B"/>
		<stop  offset="0.3229" style="stop-color:#6C6D71"/>
		<stop  offset="0.6" style="stop-color:#4D4E53"/>
		<stop  offset="0.8351" style="stop-color:#3B3C41"/>
		<stop  offset="1" style="stop-color:#34353A"/>
		<a:midPointStop  offset="0" style="stop-color:#989A9D"/>
		<a:midPointStop  offset="0.3691" style="stop-color:#989A9D"/>
		<a:midPointStop  offset="1" style="stop-color:#34353A"/>
	</linearGradient>
	<polygon clip-path="url(#SVGID_67_)" fill="url(#SVGID_68_)" points="313.96,40.752 303.435,47.379 297.469,37.904 307.994,31.278 
			"/>
</g>
<g>
	<defs>
		<path id="SVGID_69_" d="M220.034,12.436c0,0,1.118,2.676,4.329,5.013c3.211,2.337,6.461,2.376,6.461,2.376
			s-1.064-2.865-4.345-5.22c-2.831-2.034-5.576-2.173-6.275-2.173C220.093,12.432,220.034,12.436,220.034,12.436"/>
	</defs>
	<clipPath id="SVGID_70_">
		<use xlink:href="#SVGID_69_"  overflow="visible"/>
	</clipPath>
	
		<linearGradient id="SVGID_71_" gradientUnits="userSpaceOnUse" x1="-0.5225" y1="307.4834" x2="0.478" y2="307.4834" gradientTransform="matrix(10.6883 7.5342 -6.8372 9.6995 2327.9905 -2966.155)">
		<stop  offset="0" style="stop-color:#989A9D"/>
		<stop  offset="0.0159" style="stop-color:#96989B"/>
		<stop  offset="0.3229" style="stop-color:#6C6D71"/>
		<stop  offset="0.6" style="stop-color:#4D4E53"/>
		<stop  offset="0.8351" style="stop-color:#3B3C41"/>
		<stop  offset="1" style="stop-color:#34353A"/>
		<a:midPointStop  offset="0" style="stop-color:#989A9D"/>
		<a:midPointStop  offset="0.3691" style="stop-color:#989A9D"/>
		<a:midPointStop  offset="1" style="stop-color:#34353A"/>
	</linearGradient>
	<polygon clip-path="url(#SVGID_70_)" fill="url(#SVGID_71_)" points="216.553,17.371 227.242,24.906 234.306,14.886 223.616,7.351 
			"/>
</g>
<g>
	<defs>
		<path id="SVGID_72_" d="M232.36,24.831c0,0,1.043,2.496,4.036,4.674c2.993,2.179,6.022,2.216,6.022,2.216s-0.99-2.672-4.05-4.867
			c-2.639-1.896-5.197-2.026-5.849-2.026C232.415,24.828,232.36,24.831,232.36,24.831"/>
	</defs>
	<clipPath id="SVGID_73_">
		<use xlink:href="#SVGID_72_"  overflow="visible"/>
	</clipPath>
	
		<linearGradient id="SVGID_74_" gradientUnits="userSpaceOnUse" x1="-0.5601" y1="307.4453" x2="0.4404" y2="307.4453" gradientTransform="matrix(9.9642 7.0238 -6.3741 9.0425 2197.6599 -2751.3743)">
		<stop  offset="0" style="stop-color:#989A9D"/>
		<stop  offset="0.0159" style="stop-color:#96989B"/>
		<stop  offset="0.3229" style="stop-color:#6C6D71"/>
		<stop  offset="0.6" style="stop-color:#4D4E53"/>
		<stop  offset="0.8351" style="stop-color:#3B3C41"/>
		<stop  offset="1" style="stop-color:#34353A"/>
		<a:midPointStop  offset="0" style="stop-color:#989A9D"/>
		<a:midPointStop  offset="0.3691" style="stop-color:#989A9D"/>
		<a:midPointStop  offset="1" style="stop-color:#34353A"/>
	</linearGradient>
	<polygon clip-path="url(#SVGID_73_)" fill="url(#SVGID_74_)" points="229.114,29.433 239.079,36.458 245.664,27.116 
		235.699,20.092 	"/>
</g>
<g>
	<defs>
		<path id="SVGID_75_" d="M244.032,36.153c0,0,1.188,2.473,4.335,4.52c3.146,2.048,6.216,1.926,6.216,1.926
			s-1.145-2.653-4.359-4.716c-2.43-1.559-4.724-1.75-5.7-1.75C244.21,36.133,244.032,36.153,244.032,36.153"/>
	</defs>
	<clipPath id="SVGID_76_">
		<use xlink:href="#SVGID_75_"  overflow="visible"/>
	</clipPath>
	
		<linearGradient id="SVGID_77_" gradientUnits="userSpaceOnUse" x1="-0.5259" y1="307.4268" x2="0.4746" y2="307.4268" gradientTransform="matrix(10.4615 6.5866 -5.9773 9.4938 2087.1228 -2879.0635)">
		<stop  offset="0" style="stop-color:#989A9D"/>
		<stop  offset="0.0159" style="stop-color:#96989B"/>
		<stop  offset="0.3229" style="stop-color:#6C6D71"/>
		<stop  offset="0.6" style="stop-color:#4D4E53"/>
		<stop  offset="0.8351" style="stop-color:#3B3C41"/>
		<stop  offset="1" style="stop-color:#34353A"/>
		<a:midPointStop  offset="0" style="stop-color:#989A9D"/>
		<a:midPointStop  offset="0.3691" style="stop-color:#989A9D"/>
		<a:midPointStop  offset="1" style="stop-color:#34353A"/>
	</linearGradient>
	<polygon clip-path="url(#SVGID_76_)" fill="url(#SVGID_77_)" points="241.062,40.851 251.588,47.478 257.554,38.003 
		247.027,31.376 	"/>
</g>
<rect x="-2" y="-201" fill="none" width="500" height="500"/>
</svg>
