<?xml version="1.0" encoding="utf-8"?>
<!-- Generator: Adobe Illustrator 16.0.3, SVG Export Plug-In . SVG Version: 6.00 Build 0)  -->
<!DOCTYPE svg PUBLIC "-//W3C//DTD SVG 1.1//EN" "http://www.w3.org/Graphics/SVG/1.1/DTD/svg11.dtd" [
	<!ENTITY ns_flows "http://ns.adobe.com/Flows/1.0/">
	<!ENTITY ns_extend "http://ns.adobe.com/Extensibility/1.0/">
	<!ENTITY ns_ai "http://ns.adobe.com/AdobeIllustrator/10.0/">
	<!ENTITY ns_graphs "http://ns.adobe.com/Graphs/1.0/">
]>
<svg version="1.1" id="Capa_1" xmlns:x="&ns_extend;" xmlns:i="&ns_ai;" xmlns:graph="&ns_graphs;"
	 xmlns="http://www.w3.org/2000/svg" xmlns:xlink="http://www.w3.org/1999/xlink" xmlns:a="http://ns.adobe.com/AdobeSVGViewerExtensions/3.0/"
	 x="0px" y="0px" width="77.5px" height="47.978px" viewBox="0 0 77.5 47.978" enable-background="new 0 0 77.5 47.978"
	 xml:space="preserve">
<g>
	<path fill="#FFD900" d="M67.598,1.756H7.969c-1.031,0-1.871,0.771-1.871,1.7v35.371c0,0.939,0.84,1.699,1.871,1.699h59.629
		c1.03,0,1.86-0.76,1.86-1.699V3.457C69.458,2.527,68.628,1.756,67.598,1.756z M66.768,37.167H8.799V4.966h57.969V37.167z"/>
	<path fill="#FFD900" d="M73.52,41.876c0,1.955-1.443,3.537-3.23,3.537H5.266c-1.781,0-3.227-1.582-3.227-3.537H73.52z"/>
	<g>
		<path fill="#FFD900" d="M48.768,18.497c-1.35-0.39-3.299-0.59-4.189-0.59c-0.07,0-0.15,0-0.25-0.01h-0.609l0.02,0.14
			c0.18,1.45,0.26,2.62,0.25,3.68v0.141l0.13-0.011c4.17-0.25,8.51-0.59,8.75-0.689c0.08-0.03,0.13-0.09,0.13-0.18
			C52.988,20.497,49.898,18.817,48.768,18.497z M44.238,21.586c0-1-0.07-2.1-0.24-3.439h0.33c0.1,0.01,0.18,0.01,0.25,0.01
			c0.87,0,2.79,0.2,4.12,0.58c1.239,0.35,3.68,1.79,4.021,2.2C52.139,21.027,48.549,21.327,44.238,21.586z M48.768,18.497
			c-1.35-0.39-3.299-0.59-4.189-0.59c-0.07,0-0.15,0-0.25-0.01h-0.609l0.02,0.14c0.18,1.45,0.26,2.62,0.25,3.68v0.141l0.13-0.011
			c4.17-0.25,8.51-0.59,8.75-0.689c0.08-0.03,0.13-0.09,0.13-0.18C52.988,20.497,49.898,18.817,48.768,18.497z M44.238,21.586
			c0-1-0.07-2.1-0.24-3.439h0.33c0.1,0.01,0.18,0.01,0.25,0.01c0.87,0,2.79,0.2,4.12,0.58c1.239,0.35,3.68,1.79,4.021,2.2
			C52.139,21.027,48.549,21.327,44.238,21.586z M48.768,18.497c-1.35-0.39-3.299-0.59-4.189-0.59c-0.07,0-0.15,0-0.25-0.01h-0.609
			l0.02,0.14c0.18,1.45,0.26,2.62,0.25,3.68v0.141l0.13-0.011c4.17-0.25,8.51-0.59,8.75-0.689c0.08-0.03,0.13-0.09,0.13-0.18
			C52.988,20.497,49.898,18.817,48.768,18.497z M44.238,21.586c0-1-0.07-2.1-0.24-3.439h0.33c0.1,0.01,0.18,0.01,0.25,0.01
			c0.87,0,2.79,0.2,4.12,0.58c1.239,0.35,3.68,1.79,4.021,2.2C52.139,21.027,48.549,21.327,44.238,21.586z M48.768,18.497
			c-1.35-0.39-3.299-0.59-4.189-0.59c-0.07,0-0.15,0-0.25-0.01h-0.609l0.02,0.14c0.18,1.45,0.26,2.62,0.25,3.68v0.141l0.13-0.011
			c4.17-0.25,8.51-0.59,8.75-0.689c0.08-0.03,0.13-0.09,0.13-0.18C52.988,20.497,49.898,18.817,48.768,18.497z M44.238,21.586
			c0-1-0.07-2.1-0.24-3.439h0.33c0.1,0.01,0.18,0.01,0.25,0.01c0.87,0,2.79,0.2,4.12,0.58c1.239,0.35,3.68,1.79,4.021,2.2
			C52.139,21.027,48.549,21.327,44.238,21.586z M48.768,18.497c-1.35-0.39-3.299-0.59-4.189-0.59c-0.07,0-0.15,0-0.25-0.01h-0.609
			l0.02,0.14c0.18,1.45,0.26,2.62,0.25,3.68v0.141l0.13-0.011c4.17-0.25,8.51-0.59,8.75-0.689c0.08-0.03,0.13-0.09,0.13-0.18
			C52.988,20.497,49.898,18.817,48.768,18.497z M44.238,21.586c0-1-0.07-2.1-0.24-3.439h0.33c0.1,0.01,0.18,0.01,0.25,0.01
			c0.87,0,2.79,0.2,4.12,0.58c1.239,0.35,3.68,1.79,4.021,2.2C52.139,21.027,48.549,21.327,44.238,21.586z M24.628,24.997
			l-0.069-0.24c-1.9,0.45-3.311,2.16-3.311,4.2c0,0.271,0.02,0.53,0.07,0.8h-1.9c-0.54,0-0.54,0-1.119-0.04l-0.58-0.029
			c-0.261-0.011-0.471-0.07-0.611-0.16c-0.049-0.05-0.079-0.08-0.1-0.11l-0.02-0.03c-0.01-0.029-0.02-0.05-0.03-0.069
			c-0.021-0.101-0.01-0.2,0.011-0.3c0.01-0.021,0.02-0.04,0.02-0.061c0.01-0.02,0.01-0.03,0.01-0.04s0.01-0.02,0.01-0.02l0.01-0.04
			c0.031-0.051,0.051-0.08,0.051-0.08l0.029-0.021v-0.04c0.01-0.02,0.03-0.05,0.041-0.09c0.01-0.01,0.01-0.02,0.02-0.04
			c0.01-0.02,0.02-0.05,0.02-0.05c0.03-0.06,0.051-0.11,0.07-0.19c0.01-0.06,0.02-0.119,0.02-0.159c0-0.33,0-0.62,0.021-0.9
			l-0.01-0.5c0.021-0.07,0.021-0.15,0.021-0.21v-0.11c0.01-0.029,0.01-0.069,0.01-0.109c0-0.051,0-0.11,0.01-0.19
			c0-0.05,0-0.1,0.01-0.17c0-0.02,0-0.05,0.01-0.07v-0.08c0.01-0.09,0.02-0.17,0.03-0.25c0.101-0.75,0.29-1.01,0.67-1.529
			c0.08-0.11,0.17-0.23,0.261-0.36c0.409-0.58,3.069-0.95,5.59-1.22l-0.07-0.24c-2.69,0.28-5.25,0.65-5.721,1.31
			c-0.1,0.141-0.18,0.261-0.26,0.36c-0.39,0.54-0.609,0.84-0.71,1.64c-0.01,0.091-0.03,0.171-0.04,0.271v0.07
			c-0.01,0.04-0.01,0.069-0.01,0.08c-0.01,0.06-0.01,0.13-0.01,0.17c-0.01,0.08-0.01,0.149-0.01,0.21c0,0.029,0,0.06-0.01,0.09v0.13
			c0,0.05,0,0.11-0.011,0.19v0.52c-0.021,0.27-0.021,0.57-0.021,0.9c0,0.029,0,0.069-0.01,0.119c-0.01,0.04-0.029,0.07-0.06,0.131
			c0,0.02-0.011,0.029-0.021,0.05c-0.01,0.02-0.02,0.04-0.039,0.09l-0.021,0.04c-0.011,0.01-0.021,0.03-0.021,0.04
			c-0.01,0.02-0.029,0.05-0.049,0.09c-0.011,0.01-0.011,0.03-0.031,0.08l-0.039,0.11c-0.021,0.13-0.051,0.279-0.01,0.439
			c0.01,0.05,0.039,0.09,0.049,0.13l0.021,0.03c0.04,0.06,0.09,0.12,0.17,0.18c0.181,0.141,0.431,0.21,0.75,0.221l0.57,0.029
			c0.6,0.04,0.6,0.04,1.14,0.04h2.21l-0.03-0.149c-0.069-0.301-0.1-0.601-0.1-0.9C21.498,27.037,22.828,25.417,24.628,24.997z
			 M63.049,25.357c-0.011-0.07-0.031-0.13-0.061-0.21c-0.01-0.021-0.02-0.04-0.03-0.07c-0.021-0.05-0.04-0.11-0.069-0.17
			c-0.011-0.03-0.031-0.061-0.041-0.07c-0.02-0.02-0.039-0.05-0.049-0.069c-0.011-0.011-0.021-0.03-0.031-0.051l-0.06-0.08
			c-0.06-0.06-0.101-0.109-0.12-0.17l-0.02-0.06c-0.02-0.061-0.03-0.12-0.03-0.21c0-0.05,0-0.11-0.01-0.18
			c0-0.03-0.011-0.051-0.011-0.07v-0.03c-0.02-0.08-0.029-0.16-0.06-0.25c0-0.02,0-0.04-0.01-0.05l-0.14-0.62
			c-0.03-0.07-0.051-0.14-0.07-0.22l-0.04-0.15c-0.011-0.04-0.03-0.08-0.04-0.109c-0.08-0.301-0.16-0.561-0.221-0.74
			c-0.02-0.061-0.039-0.11-0.049-0.141c-0.011-0.02-0.021-0.029-0.021-0.029l-0.011-0.051c-0.059-0.14-0.26-0.17-1.27-0.3
			c-0.869-0.109-2.07-0.26-2.84-0.55c-0.16-0.06-0.38-0.15-0.66-0.27c-1.97-0.841-6.57-2.811-13.279-3.021
			c-0.141-0.01-0.291-0.01-0.44-0.01c-0.19-0.01-0.39-0.01-0.58-0.01c-3.979-0.021-4.21,0.05-5.09,0.319
			c-1.22,0.37-4.31,1.94-6.351,2.98c-0.789,0.39-1.399,0.71-1.609,0.79c-0.35,0.149-1.25,0.28-2.381,0.399l-0.029,0.25
			c1.189-0.13,2.12-0.25,2.51-0.42c0.211-0.09,0.801-0.39,1.62-0.8c1.91-0.97,5.11-2.59,6.32-2.96c0.85-0.27,1.069-0.33,5.01-0.31
			c0.19,0,0.38,0,0.58,0.01c0.13-0.01,0.28,0,0.42,0.01c6.67,0.21,11.25,2.16,13.2,3c0.279,0.12,0.51,0.21,0.67,0.28
			c0.8,0.3,2.01,0.45,2.9,0.56c0.449,0.061,0.949,0.12,1.08,0.17c0,0.011,0.01,0.03,0.01,0.04c0.02,0.04,0.029,0.08,0.05,0.141
			c0.06,0.17,0.149,0.439,0.22,0.729c0.02,0.03,0.03,0.07,0.04,0.11l0.04,0.14c0.02,0.09,0.04,0.17,0.07,0.24l0.13,0.52
			c0,0.021,0,0.04,0.01,0.091l0.011,0.05c0.029,0.069,0.039,0.14,0.049,0.21c0,0.03,0,0.05,0.011,0.09
			c0.01,0.07,0.01,0.12,0.01,0.16c0,0.12,0.011,0.21,0.05,0.32c0.01,0.01,0.01,0.02,0.01,0.029c0.041,0.11,0.11,0.181,0.17,0.26
			l0.011,0.011c0.01,0.02,0.03,0.04,0.03,0.04l0.029,0.04c0.01,0.02,0.02,0.05,0.051,0.08l0.02,0.04c0.029,0.05,0.05,0.1,0.08,0.17
			l0.01,0.04c0.03,0.06,0.04,0.119,0.061,0.18c0.17,0.64,0.109,2.439-0.051,2.84c-0.01,0.021-0.02,0.04-0.02,0.04
			c-0.11,0.03-0.23,0.11-0.391,0.23c-0.049,0.039-0.1,0.079-0.18,0.13c-0.01,0.02-0.029,0.029-0.061,0.04
			c-0.02,0.02-0.029,0.029-0.049,0.04l-0.101,0.069c-0.04,0.03-0.08,0.05-0.12,0.08c-0.039,0.021-0.08,0.05-0.109,0.07
			c-0.08,0.04-0.15,0.09-0.24,0.13l-0.189,0.11c-0.191,0.1-0.5,0.189-0.861,0.279c-0.039,0-0.08,0.011-0.119,0.021
			c-0.03,0.01-0.07,0.02-0.131,0.03h-0.029c-0.03,0.01-0.051,0.01-0.061,0.02c-0.42,0.09-0.85,0.15-1.129,0.19
			c0.049-0.24,0.069-0.5,0.069-0.771c0-2.38-1.931-4.32-4.31-4.32c-2.371,0-4.301,1.94-4.301,4.32c0,0.271,0.021,0.53,0.07,0.8
			h-20.72c0.05-0.3,0.079-0.55,0.079-0.8c0-1.84-1.159-3.42-2.789-4.04l-0.03,0.26c1.5,0.591,2.569,2.07,2.569,3.78
			c0,0.271-0.029,0.561-0.109,0.9l-0.029,0.149h21.34l-0.03-0.149c-0.07-0.301-0.101-0.601-0.101-0.9c0-2.24,1.82-4.07,4.051-4.07
			c2.24,0,4.06,1.83,4.06,4.07c0,0.32-0.03,0.61-0.11,0.88l-0.01,0.16h0.16c0.27-0.03,0.8-0.1,1.34-0.22
			c0.01-0.01,0.02-0.01,0.03-0.01c0.021,0,0.05-0.011,0.05-0.011c0.04-0.01,0.08-0.02,0.13-0.029c0.03,0,0.06-0.011,0.11-0.021
			c0.38-0.09,0.72-0.189,0.92-0.3l0.199-0.11c0.091-0.04,0.171-0.09,0.261-0.14c0.03-0.03,0.069-0.05,0.11-0.07
			c0.039-0.03,0.08-0.06,0.14-0.1l0.13-0.09c0.03-0.021,0.07-0.04,0.08-0.061c0.061-0.04,0.12-0.08,0.17-0.12
			c0.13-0.09,0.25-0.18,0.29-0.18l0.069-0.01l0.041-0.04c0.029-0.03,0.06-0.09,0.09-0.13C63.168,27.897,63.229,26.046,63.049,25.357
			z"/>
	</g>
	<g>
		<path fill="#FFD900" d="M38.038,21.917c0.87-0.03,1.819-0.07,2.84-0.13C39.948,21.827,38.988,21.876,38.038,21.917z
			 M43.008,18.126c0.11,0.01,0.211,0.01,0.311,0.01v-0.01H43.008z"/>
		<path fill="#FFD900" d="M43.788,20.716c0-0.22-0.021-0.439-0.03-0.68c-0.039-0.63-0.109-1.31-0.199-2.04l-0.021-0.11h-0.11
			c-0.57-0.01-1.26-0.02-1.959-0.02c-1.521,0-2.5,0.04-2.99,0.12c-0.17,0.03-0.69,0.22-1.391,0.5c-0.22,0.09-0.47,0.189-0.73,0.3
			c-2.02,0.86-4.789,2.18-5.409,2.91c-0.06,0.08-0.06,0.149-0.05,0.189c0.01,0.061,0.05,0.101,0.1,0.131
			c0.04,0.029,0.08,0.05,0.1,0.05c0.021,0.01,0.051,0.02,0.08,0.029c0.271,0.08,0.791,0.131,1.631,0.15
			c0.279,0.01,0.58,0.021,0.91,0.021h0.189c2.699,0,6.811-0.211,9.779-0.391l0.121-0.01v-0.12
			C43.809,21.417,43.809,21.077,43.788,20.716z M33.598,21.636c-0.149-0.069-0.27-0.109-0.359-0.05c-0.08,0.05-0.09,0.12-0.08,0.16
			c0,0.1,0.09,0.18,0.22,0.26c-0.2,0-0.39,0-0.56-0.01c-0.65-0.01-1.12-0.05-1.4-0.1c0.02-0.03,0.051-0.051,0.07-0.07
			c0.41-0.34,0.83-0.7,1.369-1.01c0.141-0.08,0.261-0.141,0.371-0.2c0.16-0.07,0.3-0.12,0.52-0.14c0,0,0.29,0,0.29,0.159
			c0,0.33-0.05,0.74-0.069,0.9c-0.021,0.2-0.08,0.2-0.101,0.2C33.788,21.737,33.678,21.687,33.598,21.636z M42.398,21.707
			c-0.19,0.01-0.4,0.021-0.6,0.03c-0.311,0.02-0.621,0.04-0.921,0.05c-1.021,0.06-1.97,0.1-2.84,0.13
			c-0.2,0.01-0.39,0.01-0.59,0.021c-0.25,0.01-0.49,0.02-0.72,0.029c-0.311,0.011-0.61,0.021-0.91,0.03c-0.29,0-0.58,0.01-0.85,0.01
			c-0.371,0.011-0.73,0.011-1.061,0.011h-0.07c-0.01-0.011-0.02-0.021-0.029-0.03h0.06c0.11,0,0.31-0.05,0.351-0.42
			c0.02-0.17,0.069-0.59,0.069-0.931c0-0.26-0.229-0.39-0.479-0.409l0.75-0.36c0.14-0.07,0.279-0.14,0.42-0.2
			c0.209-0.09,0.41-0.18,0.609-0.27c0.16-0.08,0.32-0.15,0.48-0.21c0.82-0.36,1.539-0.65,2-0.811c0.05-0.02,0.1-0.04,0.15-0.05
			c0.08-0.03,0.149-0.05,0.209-0.07c0.041-0.01,0.07-0.02,0.09-0.02c0.07-0.01,0.16-0.021,0.261-0.04
			c0.229-0.021,0.521-0.04,0.829-0.05c0.5-0.021,1.121-0.03,1.861-0.03c0.529,0,1.069,0.01,1.539,0.01h0.311v0.01
			c0.17,1.311,0.24,2.46,0.24,3.5C43.158,21.657,42.778,21.687,42.398,21.707z"/>
	</g>
	<g>
		<path fill="#FFD900" d="M18.08,25.729c-0.205,0-0.411-0.006-0.616-0.013l-0.372-0.011l0.018-0.138
			c0.109-0.805,0.334-1.113,0.705-1.624l0.098-0.135l0.188-0.001c0.228-0.002,0.455-0.004,0.684-0.004
			c0.42,0,0.973,0.006,1.521,0.047l0.149,0.012l-0.037,0.145c-0.195,0.745-0.441,1.43-1.295,1.633
			C18.826,25.701,18.497,25.729,18.08,25.729z M17.379,25.463l0.093,0.003c0.202,0.007,0.406,0.013,0.608,0.013
			c0.399,0,0.713-0.026,0.986-0.083c0.666-0.158,0.893-0.677,1.068-1.306c-0.49-0.031-0.975-0.036-1.352-0.036
			c-0.228,0-0.455,0.002-0.682,0.004h-0.061l-0.023,0.033C17.669,24.57,17.482,24.825,17.379,25.463z"/>
	</g>
	<g>
		<path fill="#FFD900" d="M23.008,28.397l-0.029,0.14c-0.021,0.13-0.041,0.27-0.041,0.42c0,0.69,0.271,1.34,0.771,1.83l0.101,0.1
			l0.799-1.109l0.291-0.391l0.209-0.31L23.008,28.397z M23.778,30.497c-0.38-0.43-0.591-0.97-0.591-1.54
			c0-0.08,0.011-0.16,0.021-0.229l1.021,0.329l0.49,0.16L23.778,30.497z M25.139,26.376c-0.791,0.11-1.5,0.62-1.9,1.36l-0.07,0.13
			l1.301,0.42l0.469,0.16l0.351,0.109v-2.199L25.139,26.376z M25.038,28.216l-1.5-0.489c0.34-0.561,0.89-0.95,1.5-1.08V28.216z
			 M25.559,28.577c-0.211,0-0.371,0.17-0.371,0.38c0,0.19,0.17,0.36,0.371,0.36c0.199,0,0.369-0.17,0.369-0.36
			C25.928,28.747,25.768,28.577,25.559,28.577z M26.068,30.096l-0.51-0.689l-1.311,1.81l0.13,0.07c0.37,0.19,0.761,0.28,1.181,0.28
			c0.399,0,0.799-0.101,1.18-0.28l0.13-0.07L26.068,30.096z M24.628,31.126l0.931-1.29l0.93,1.28
			C25.878,31.386,25.198,31.376,24.628,31.126z M27.878,27.737c-0.38-0.72-1.09-1.23-1.89-1.36l-0.15-0.03v2.21l2.11-0.689
			L27.878,27.737z M26.088,28.216v-1.569c0.62,0.14,1.16,0.529,1.49,1.08L26.088,28.216z M28.139,28.546l-0.031-0.14l-2.09,0.67
			l1.301,1.81l0.109-0.1c0.48-0.5,0.74-1.15,0.74-1.83C28.168,28.817,28.158,28.676,28.139,28.546z M27.348,30.497l-0.92-1.25
			l-0.02-0.03l1.5-0.479c0.01,0.069,0.01,0.14,0.01,0.22C27.918,29.537,27.729,30.067,27.348,30.497z M23.008,28.397l-0.029,0.14
			c-0.021,0.13-0.041,0.27-0.041,0.42c0,0.69,0.271,1.34,0.771,1.83l0.101,0.1l0.799-1.109l0.291-0.391l0.209-0.31L23.008,28.397z
			 M23.778,30.497c-0.38-0.43-0.591-0.97-0.591-1.54c0-0.08,0.011-0.16,0.021-0.229l1.021,0.329l0.49,0.16L23.778,30.497z
			 M25.139,26.376c-0.791,0.11-1.5,0.62-1.9,1.36l-0.07,0.13l1.301,0.42l0.469,0.16l0.351,0.109v-2.199L25.139,26.376z
			 M25.038,28.216l-1.5-0.489c0.34-0.561,0.89-0.95,1.5-1.08V28.216z M25.559,28.577c-0.211,0-0.371,0.17-0.371,0.38
			c0,0.19,0.17,0.36,0.371,0.36c0.199,0,0.369-0.17,0.369-0.36C25.928,28.747,25.768,28.577,25.559,28.577z M26.068,30.096
			l-0.51-0.689l-1.311,1.81l0.13,0.07c0.37,0.19,0.761,0.28,1.181,0.28c0.399,0,0.799-0.101,1.18-0.28l0.13-0.07L26.068,30.096z
			 M24.628,31.126l0.931-1.29l0.93,1.28C25.878,31.386,25.198,31.376,24.628,31.126z M27.878,27.737c-0.38-0.72-1.09-1.23-1.89-1.36
			l-0.15-0.03v2.21l2.11-0.689L27.878,27.737z M26.088,28.216v-1.569c0.62,0.14,1.16,0.529,1.49,1.08L26.088,28.216z M28.139,28.546
			l-0.031-0.14l-2.09,0.67l1.301,1.81l0.109-0.1c0.48-0.5,0.74-1.15,0.74-1.83C28.168,28.817,28.158,28.676,28.139,28.546z
			 M27.348,30.497l-0.92-1.25l-0.02-0.03l1.5-0.479c0.01,0.069,0.01,0.14,0.01,0.22C27.918,29.537,27.729,30.067,27.348,30.497z
			 M23.008,28.397l-0.029,0.14c-0.021,0.13-0.041,0.27-0.041,0.42c0,0.69,0.271,1.34,0.771,1.83l0.101,0.1l0.799-1.109l0.291-0.391
			l0.209-0.31L23.008,28.397z M23.778,30.497c-0.38-0.43-0.591-0.97-0.591-1.54c0-0.08,0.011-0.16,0.021-0.229l1.021,0.329
			l0.49,0.16L23.778,30.497z M25.139,26.376c-0.791,0.11-1.5,0.62-1.9,1.36l-0.07,0.13l1.301,0.42l0.469,0.16l0.351,0.109v-2.199
			L25.139,26.376z M25.038,28.216l-1.5-0.489c0.34-0.561,0.89-0.95,1.5-1.08V28.216z M25.559,28.577c-0.211,0-0.371,0.17-0.371,0.38
			c0,0.19,0.17,0.36,0.371,0.36c0.199,0,0.369-0.17,0.369-0.36C25.928,28.747,25.768,28.577,25.559,28.577z M26.068,30.096
			l-0.51-0.689l-1.311,1.81l0.13,0.07c0.37,0.19,0.761,0.28,1.181,0.28c0.399,0,0.799-0.101,1.18-0.28l0.13-0.07L26.068,30.096z
			 M24.628,31.126l0.931-1.29l0.93,1.28C25.878,31.386,25.198,31.376,24.628,31.126z M27.878,27.737c-0.38-0.72-1.09-1.23-1.89-1.36
			l-0.15-0.03v2.21l2.11-0.689L27.878,27.737z M26.088,28.216v-1.569c0.62,0.14,1.16,0.529,1.49,1.08L26.088,28.216z M28.139,28.546
			l-0.031-0.14l-2.09,0.67l1.301,1.81l0.109-0.1c0.48-0.5,0.74-1.15,0.74-1.83C28.168,28.817,28.158,28.676,28.139,28.546z
			 M27.348,30.497l-0.92-1.25l-0.02-0.03l1.5-0.479c0.01,0.069,0.01,0.14,0.01,0.22C27.918,29.537,27.729,30.067,27.348,30.497z
			 M26.988,25.737l-0.03,0.27c1.101,0.521,1.87,1.641,1.87,2.95c0,1.79-1.471,3.26-3.27,3.26c-1.801,0-3.26-1.47-3.26-3.26
			c0-1.57,1.1-2.88,2.559-3.189l-0.069-0.24c-1.569,0.35-2.739,1.75-2.739,3.43c0,1.93,1.569,3.51,3.51,3.51
			c1.939,0,3.52-1.58,3.52-3.51C29.078,27.517,28.219,26.287,26.988,25.737z M27.428,30.787c0.48-0.5,0.74-1.15,0.74-1.83
			c0-0.14-0.01-0.28-0.029-0.41l-0.031-0.14l-2.09,0.67l1.301,1.81L27.428,30.787z M26.408,29.216l1.5-0.479
			c0.01,0.069,0.01,0.14,0.01,0.22c0,0.58-0.189,1.11-0.57,1.54l-0.92-1.25L26.408,29.216z M27.878,27.737
			c-0.38-0.72-1.09-1.23-1.89-1.36l-0.15-0.03v2.21l2.11-0.689L27.878,27.737z M26.088,28.216v-1.569
			c0.62,0.14,1.16,0.529,1.49,1.08L26.088,28.216z M25.559,31.567c0.399,0,0.799-0.101,1.18-0.28l0.13-0.07l-0.8-1.12l-0.51-0.689
			l-1.311,1.81l0.13,0.07C24.748,31.477,25.139,31.567,25.559,31.567z M25.559,29.836l0.93,1.28c-0.61,0.27-1.29,0.26-1.86,0.01
			L25.559,29.836z M25.559,29.317c0.199,0,0.369-0.17,0.369-0.36c0-0.21-0.16-0.38-0.369-0.38c-0.211,0-0.371,0.17-0.371,0.38
			C25.188,29.147,25.357,29.317,25.559,29.317z M23.238,27.737l-0.07,0.13l1.301,0.42l0.469,0.16l0.351,0.109v-2.199l-0.149,0.02
			C24.348,26.487,23.639,26.997,23.238,27.737z M25.038,26.647v1.569l-1.5-0.489C23.878,27.167,24.428,26.777,25.038,26.647z
			 M25.107,29.077l-2.1-0.68l-0.029,0.14c-0.021,0.13-0.041,0.27-0.041,0.42c0,0.69,0.271,1.34,0.771,1.83l0.101,0.1l0.799-1.109
			l0.291-0.391L25.107,29.077z M23.778,30.497c-0.38-0.43-0.591-0.97-0.591-1.54c0-0.08,0.011-0.16,0.021-0.229l1.021,0.329
			l0.49,0.16L23.778,30.497z M28.139,28.546l-0.031-0.14l-2.09,0.67l1.301,1.81l0.109-0.1c0.48-0.5,0.74-1.15,0.74-1.83
			C28.168,28.817,28.158,28.676,28.139,28.546z M27.348,30.497l-0.92-1.25l-0.02-0.03l1.5-0.479c0.01,0.069,0.01,0.14,0.01,0.22
			C27.918,29.537,27.729,30.067,27.348,30.497z M27.878,27.737c-0.38-0.72-1.09-1.23-1.89-1.36l-0.15-0.03v2.21l2.11-0.689
			L27.878,27.737z M26.088,28.216v-1.569c0.62,0.14,1.16,0.529,1.49,1.08L26.088,28.216z M26.068,30.096l-0.51-0.689l-1.311,1.81
			l0.13,0.07c0.37,0.19,0.761,0.28,1.181,0.28c0.399,0,0.799-0.101,1.18-0.28l0.13-0.07L26.068,30.096z M24.628,31.126l0.931-1.29
			l0.93,1.28C25.878,31.386,25.198,31.376,24.628,31.126z M25.559,28.577c-0.211,0-0.371,0.17-0.371,0.38
			c0,0.19,0.17,0.36,0.371,0.36c0.199,0,0.369-0.17,0.369-0.36C25.928,28.747,25.768,28.577,25.559,28.577z M25.139,26.376
			c-0.791,0.11-1.5,0.62-1.9,1.36l-0.07,0.13l1.301,0.42l0.469,0.16l0.351,0.109v-2.199L25.139,26.376z M25.038,28.216l-1.5-0.489
			c0.34-0.561,0.89-0.95,1.5-1.08V28.216z M23.008,28.397l-0.029,0.14c-0.021,0.13-0.041,0.27-0.041,0.42
			c0,0.69,0.271,1.34,0.771,1.83l0.101,0.1l0.799-1.109l0.291-0.391l0.209-0.31L23.008,28.397z M23.778,30.497
			c-0.38-0.43-0.591-0.97-0.591-1.54c0-0.08,0.011-0.16,0.021-0.229l1.021,0.329l0.49,0.16L23.778,30.497z M28.139,28.546
			l-0.031-0.14l-2.09,0.67l1.301,1.81l0.109-0.1c0.48-0.5,0.74-1.15,0.74-1.83C28.168,28.817,28.158,28.676,28.139,28.546z
			 M27.348,30.497l-0.92-1.25l-0.02-0.03l1.5-0.479c0.01,0.069,0.01,0.14,0.01,0.22C27.918,29.537,27.729,30.067,27.348,30.497z
			 M27.878,27.737c-0.38-0.72-1.09-1.23-1.89-1.36l-0.15-0.03v2.21l2.11-0.689L27.878,27.737z M26.088,28.216v-1.569
			c0.62,0.14,1.16,0.529,1.49,1.08L26.088,28.216z M26.068,30.096l-0.51-0.689l-1.311,1.81l0.13,0.07
			c0.37,0.19,0.761,0.28,1.181,0.28c0.399,0,0.799-0.101,1.18-0.28l0.13-0.07L26.068,30.096z M24.628,31.126l0.931-1.29l0.93,1.28
			C25.878,31.386,25.198,31.376,24.628,31.126z M25.559,28.577c-0.211,0-0.371,0.17-0.371,0.38c0,0.19,0.17,0.36,0.371,0.36
			c0.199,0,0.369-0.17,0.369-0.36C25.928,28.747,25.768,28.577,25.559,28.577z M25.139,26.376c-0.791,0.11-1.5,0.62-1.9,1.36
			l-0.07,0.13l1.301,0.42l0.469,0.16l0.351,0.109v-2.199L25.139,26.376z M25.038,28.216l-1.5-0.489c0.34-0.561,0.89-0.95,1.5-1.08
			V28.216z M23.008,28.397l-0.029,0.14c-0.021,0.13-0.041,0.27-0.041,0.42c0,0.69,0.271,1.34,0.771,1.83l0.101,0.1l0.799-1.109
			l0.291-0.391l0.209-0.31L23.008,28.397z M23.778,30.497c-0.38-0.43-0.591-0.97-0.591-1.54c0-0.08,0.011-0.16,0.021-0.229
			l1.021,0.329l0.49,0.16L23.778,30.497z M28.139,28.546l-0.031-0.14l-2.09,0.67l1.301,1.81l0.109-0.1c0.48-0.5,0.74-1.15,0.74-1.83
			C28.168,28.817,28.158,28.676,28.139,28.546z M27.348,30.497l-0.92-1.25l-0.02-0.03l1.5-0.479c0.01,0.069,0.01,0.14,0.01,0.22
			C27.918,29.537,27.729,30.067,27.348,30.497z M27.878,27.737c-0.38-0.72-1.09-1.23-1.89-1.36l-0.15-0.03v2.21l2.11-0.689
			L27.878,27.737z M26.088,28.216v-1.569c0.62,0.14,1.16,0.529,1.49,1.08L26.088,28.216z M26.068,30.096l-0.51-0.689l-1.311,1.81
			l0.13,0.07c0.37,0.19,0.761,0.28,1.181,0.28c0.399,0,0.799-0.101,1.18-0.28l0.13-0.07L26.068,30.096z M24.628,31.126l0.931-1.29
			l0.93,1.28C25.878,31.386,25.198,31.376,24.628,31.126z M25.559,28.577c-0.211,0-0.371,0.17-0.371,0.38
			c0,0.19,0.17,0.36,0.371,0.36c0.199,0,0.369-0.17,0.369-0.36C25.928,28.747,25.768,28.577,25.559,28.577z M25.139,26.376
			c-0.791,0.11-1.5,0.62-1.9,1.36l-0.07,0.13l1.301,0.42l0.469,0.16l0.351,0.109v-2.199L25.139,26.376z M25.038,28.216l-1.5-0.489
			c0.34-0.561,0.89-0.95,1.5-1.08V28.216z M23.008,28.397l-0.029,0.14c-0.021,0.13-0.041,0.27-0.041,0.42
			c0,0.69,0.271,1.34,0.771,1.83l0.101,0.1l0.799-1.109l0.291-0.391l0.209-0.31L23.008,28.397z M23.778,30.497
			c-0.38-0.43-0.591-0.97-0.591-1.54c0-0.08,0.011-0.16,0.021-0.229l1.021,0.329l0.49,0.16L23.778,30.497z M23.008,28.397
			l-0.029,0.14c-0.021,0.13-0.041,0.27-0.041,0.42c0,0.69,0.271,1.34,0.771,1.83l0.101,0.1l0.799-1.109l0.291-0.391l0.209-0.31
			L23.008,28.397z M23.778,30.497c-0.38-0.43-0.591-0.97-0.591-1.54c0-0.08,0.011-0.16,0.021-0.229l1.021,0.329l0.49,0.16
			L23.778,30.497z M25.139,26.376c-0.791,0.11-1.5,0.62-1.9,1.36l-0.07,0.13l1.301,0.42l0.469,0.16l0.351,0.109v-2.199
			L25.139,26.376z M25.038,28.216l-1.5-0.489c0.34-0.561,0.89-0.95,1.5-1.08V28.216z M25.559,28.577c-0.211,0-0.371,0.17-0.371,0.38
			c0,0.19,0.17,0.36,0.371,0.36c0.199,0,0.369-0.17,0.369-0.36C25.928,28.747,25.768,28.577,25.559,28.577z M26.068,30.096
			l-0.51-0.689l-1.311,1.81l0.13,0.07c0.37,0.19,0.761,0.28,1.181,0.28c0.399,0,0.799-0.101,1.18-0.28l0.13-0.07L26.068,30.096z
			 M24.628,31.126l0.931-1.29l0.93,1.28C25.878,31.386,25.198,31.376,24.628,31.126z M27.878,27.737c-0.38-0.72-1.09-1.23-1.89-1.36
			l-0.15-0.03v2.21l2.11-0.689L27.878,27.737z M26.088,28.216v-1.569c0.62,0.14,1.16,0.529,1.49,1.08L26.088,28.216z M28.139,28.546
			l-0.031-0.14l-2.09,0.67l1.301,1.81l0.109-0.1c0.48-0.5,0.74-1.15,0.74-1.83C28.168,28.817,28.158,28.676,28.139,28.546z
			 M27.348,30.497l-0.92-1.25l-0.02-0.03l1.5-0.479c0.01,0.069,0.01,0.14,0.01,0.22C27.918,29.537,27.729,30.067,27.348,30.497z
			 M28.139,28.546l-0.031-0.14l-2.09,0.67l1.301,1.81l0.109-0.1c0.48-0.5,0.74-1.15,0.74-1.83
			C28.168,28.817,28.158,28.676,28.139,28.546z M27.348,30.497l-0.92-1.25l-0.02-0.03l1.5-0.479c0.01,0.069,0.01,0.14,0.01,0.22
			C27.918,29.537,27.729,30.067,27.348,30.497z M27.878,27.737c-0.38-0.72-1.09-1.23-1.89-1.36l-0.15-0.03v2.21l2.11-0.689
			L27.878,27.737z M26.088,28.216v-1.569c0.62,0.14,1.16,0.529,1.49,1.08L26.088,28.216z M26.068,30.096l-0.51-0.689l-1.311,1.81
			l0.13,0.07c0.37,0.19,0.761,0.28,1.181,0.28c0.399,0,0.799-0.101,1.18-0.28l0.13-0.07L26.068,30.096z M24.628,31.126l0.931-1.29
			l0.93,1.28C25.878,31.386,25.198,31.376,24.628,31.126z M25.559,28.577c-0.211,0-0.371,0.17-0.371,0.38
			c0,0.19,0.17,0.36,0.371,0.36c0.199,0,0.369-0.17,0.369-0.36C25.928,28.747,25.768,28.577,25.559,28.577z M25.139,26.376
			c-0.791,0.11-1.5,0.62-1.9,1.36l-0.07,0.13l1.301,0.42l0.469,0.16l0.351,0.109v-2.199L25.139,26.376z M25.038,28.216l-1.5-0.489
			c0.34-0.561,0.89-0.95,1.5-1.08V28.216z M23.008,28.397l-0.029,0.14c-0.021,0.13-0.041,0.27-0.041,0.42
			c0,0.69,0.271,1.34,0.771,1.83l0.101,0.1l0.799-1.109l0.291-0.391l0.209-0.31L23.008,28.397z M23.778,30.497
			c-0.38-0.43-0.591-0.97-0.591-1.54c0-0.08,0.011-0.16,0.021-0.229l1.021,0.329l0.49,0.16L23.778,30.497z M23.008,28.397
			l-0.029,0.14c-0.021,0.13-0.041,0.27-0.041,0.42c0,0.69,0.271,1.34,0.771,1.83l0.101,0.1l0.799-1.109l0.291-0.391l0.209-0.31
			L23.008,28.397z M23.778,30.497c-0.38-0.43-0.591-0.97-0.591-1.54c0-0.08,0.011-0.16,0.021-0.229l1.021,0.329l0.49,0.16
			L23.778,30.497z M25.139,26.376c-0.791,0.11-1.5,0.62-1.9,1.36l-0.07,0.13l1.301,0.42l0.469,0.16l0.351,0.109v-2.199
			L25.139,26.376z M25.038,28.216l-1.5-0.489c0.34-0.561,0.89-0.95,1.5-1.08V28.216z M25.559,28.577c-0.211,0-0.371,0.17-0.371,0.38
			c0,0.19,0.17,0.36,0.371,0.36c0.199,0,0.369-0.17,0.369-0.36C25.928,28.747,25.768,28.577,25.559,28.577z M26.068,30.096
			l-0.51-0.689l-1.311,1.81l0.13,0.07c0.37,0.19,0.761,0.28,1.181,0.28c0.399,0,0.799-0.101,1.18-0.28l0.13-0.07L26.068,30.096z
			 M24.628,31.126l0.931-1.29l0.93,1.28C25.878,31.386,25.198,31.376,24.628,31.126z M27.878,27.737c-0.38-0.72-1.09-1.23-1.89-1.36
			l-0.15-0.03v2.21l2.11-0.689L27.878,27.737z M26.088,28.216v-1.569c0.62,0.14,1.16,0.529,1.49,1.08L26.088,28.216z M28.139,28.546
			l-0.031-0.14l-2.09,0.67l1.301,1.81l0.109-0.1c0.48-0.5,0.74-1.15,0.74-1.83C28.168,28.817,28.158,28.676,28.139,28.546z
			 M27.348,30.497l-0.92-1.25l-0.02-0.03l1.5-0.479c0.01,0.069,0.01,0.14,0.01,0.22C27.918,29.537,27.729,30.067,27.348,30.497z
			 M28.139,28.546l-0.031-0.14l-2.09,0.67l1.301,1.81l0.109-0.1c0.48-0.5,0.74-1.15,0.74-1.83
			C28.168,28.817,28.158,28.676,28.139,28.546z M27.348,30.497l-0.92-1.25l-0.02-0.03l1.5-0.479c0.01,0.069,0.01,0.14,0.01,0.22
			C27.918,29.537,27.729,30.067,27.348,30.497z M27.878,27.737c-0.38-0.72-1.09-1.23-1.89-1.36l-0.15-0.03v2.21l2.11-0.689
			L27.878,27.737z M26.088,28.216v-1.569c0.62,0.14,1.16,0.529,1.49,1.08L26.088,28.216z M26.068,30.096l-0.51-0.689l-1.311,1.81
			l0.13,0.07c0.37,0.19,0.761,0.28,1.181,0.28c0.399,0,0.799-0.101,1.18-0.28l0.13-0.07L26.068,30.096z M24.628,31.126l0.931-1.29
			l0.93,1.28C25.878,31.386,25.198,31.376,24.628,31.126z M25.559,28.577c-0.211,0-0.371,0.17-0.371,0.38
			c0,0.19,0.17,0.36,0.371,0.36c0.199,0,0.369-0.17,0.369-0.36C25.928,28.747,25.768,28.577,25.559,28.577z M25.139,26.376
			c-0.791,0.11-1.5,0.62-1.9,1.36l-0.07,0.13l1.301,0.42l0.469,0.16l0.351,0.109v-2.199L25.139,26.376z M25.038,28.216l-1.5-0.489
			c0.34-0.561,0.89-0.95,1.5-1.08V28.216z M23.008,28.397l-0.029,0.14c-0.021,0.13-0.041,0.27-0.041,0.42
			c0,0.69,0.271,1.34,0.771,1.83l0.101,0.1l0.799-1.109l0.291-0.391l0.209-0.31L23.008,28.397z M23.778,30.497
			c-0.38-0.43-0.591-0.97-0.591-1.54c0-0.08,0.011-0.16,0.021-0.229l1.021,0.329l0.49,0.16L23.778,30.497z M23.008,28.397
			l-0.029,0.14c-0.021,0.13-0.041,0.27-0.041,0.42c0,0.69,0.271,1.34,0.771,1.83l0.101,0.1l0.799-1.109l0.291-0.391l0.209-0.31
			L23.008,28.397z M23.778,30.497c-0.38-0.43-0.591-0.97-0.591-1.54c0-0.08,0.011-0.16,0.021-0.229l1.021,0.329l0.49,0.16
			L23.778,30.497z M25.139,26.376c-0.791,0.11-1.5,0.62-1.9,1.36l-0.07,0.13l1.301,0.42l0.469,0.16l0.351,0.109v-2.199
			L25.139,26.376z M25.038,28.216l-1.5-0.489c0.34-0.561,0.89-0.95,1.5-1.08V28.216z M25.559,28.577c-0.211,0-0.371,0.17-0.371,0.38
			c0,0.19,0.17,0.36,0.371,0.36c0.199,0,0.369-0.17,0.369-0.36C25.928,28.747,25.768,28.577,25.559,28.577z M26.068,30.096
			l-0.51-0.689l-1.311,1.81l0.13,0.07c0.37,0.19,0.761,0.28,1.181,0.28c0.399,0,0.799-0.101,1.18-0.28l0.13-0.07L26.068,30.096z
			 M24.628,31.126l0.931-1.29l0.93,1.28C25.878,31.386,25.198,31.376,24.628,31.126z M27.878,27.737c-0.38-0.72-1.09-1.23-1.89-1.36
			l-0.15-0.03v2.21l2.11-0.689L27.878,27.737z M26.088,28.216v-1.569c0.62,0.14,1.16,0.529,1.49,1.08L26.088,28.216z M28.139,28.546
			l-0.031-0.14l-2.09,0.67l1.301,1.81l0.109-0.1c0.48-0.5,0.74-1.15,0.74-1.83C28.168,28.817,28.158,28.676,28.139,28.546z
			 M27.348,30.497l-0.92-1.25l-0.02-0.03l1.5-0.479c0.01,0.069,0.01,0.14,0.01,0.22C27.918,29.537,27.729,30.067,27.348,30.497z
			 M28.139,28.546l-0.031-0.14l-2.09,0.67l1.301,1.81l0.109-0.1c0.48-0.5,0.74-1.15,0.74-1.83
			C28.168,28.817,28.158,28.676,28.139,28.546z M27.348,30.497l-0.92-1.25l-0.02-0.03l1.5-0.479c0.01,0.069,0.01,0.14,0.01,0.22
			C27.918,29.537,27.729,30.067,27.348,30.497z M27.878,27.737c-0.38-0.72-1.09-1.23-1.89-1.36l-0.15-0.03v2.21l2.11-0.689
			L27.878,27.737z M26.088,28.216v-1.569c0.62,0.14,1.16,0.529,1.49,1.08L26.088,28.216z M26.068,30.096l-0.51-0.689l-1.311,1.81
			l0.13,0.07c0.37,0.19,0.761,0.28,1.181,0.28c0.399,0,0.799-0.101,1.18-0.28l0.13-0.07L26.068,30.096z M24.628,31.126l0.931-1.29
			l0.93,1.28C25.878,31.386,25.198,31.376,24.628,31.126z M25.559,28.577c-0.211,0-0.371,0.17-0.371,0.38
			c0,0.19,0.17,0.36,0.371,0.36c0.199,0,0.369-0.17,0.369-0.36C25.928,28.747,25.768,28.577,25.559,28.577z M25.139,26.376
			c-0.791,0.11-1.5,0.62-1.9,1.36l-0.07,0.13l1.301,0.42l0.469,0.16l0.351,0.109v-2.199L25.139,26.376z M25.038,28.216l-1.5-0.489
			c0.34-0.561,0.89-0.95,1.5-1.08V28.216z M23.008,28.397l-0.029,0.14c-0.021,0.13-0.041,0.27-0.041,0.42
			c0,0.69,0.271,1.34,0.771,1.83l0.101,0.1l0.799-1.109l0.291-0.391l0.209-0.31L23.008,28.397z M23.778,30.497
			c-0.38-0.43-0.591-0.97-0.591-1.54c0-0.08,0.011-0.16,0.021-0.229l1.021,0.329l0.49,0.16L23.778,30.497z M23.008,28.397
			l-0.029,0.14c-0.021,0.13-0.041,0.27-0.041,0.42c0,0.69,0.271,1.34,0.771,1.83l0.101,0.1l0.799-1.109l0.291-0.391l0.209-0.31
			L23.008,28.397z M23.778,30.497c-0.38-0.43-0.591-0.97-0.591-1.54c0-0.08,0.011-0.16,0.021-0.229l1.021,0.329l0.49,0.16
			L23.778,30.497z M25.139,26.376c-0.791,0.11-1.5,0.62-1.9,1.36l-0.07,0.13l1.301,0.42l0.469,0.16l0.351,0.109v-2.199
			L25.139,26.376z M25.038,28.216l-1.5-0.489c0.34-0.561,0.89-0.95,1.5-1.08V28.216z M25.559,28.577c-0.211,0-0.371,0.17-0.371,0.38
			c0,0.19,0.17,0.36,0.371,0.36c0.199,0,0.369-0.17,0.369-0.36C25.928,28.747,25.768,28.577,25.559,28.577z M26.068,30.096
			l-0.51-0.689l-1.311,1.81l0.13,0.07c0.37,0.19,0.761,0.28,1.181,0.28c0.399,0,0.799-0.101,1.18-0.28l0.13-0.07L26.068,30.096z
			 M24.628,31.126l0.931-1.29l0.93,1.28C25.878,31.386,25.198,31.376,24.628,31.126z M27.878,27.737c-0.38-0.72-1.09-1.23-1.89-1.36
			l-0.15-0.03v2.21l2.11-0.689L27.878,27.737z M26.088,28.216v-1.569c0.62,0.14,1.16,0.529,1.49,1.08L26.088,28.216z M28.139,28.546
			l-0.031-0.14l-2.09,0.67l1.301,1.81l0.109-0.1c0.48-0.5,0.74-1.15,0.74-1.83C28.168,28.817,28.158,28.676,28.139,28.546z
			 M27.348,30.497l-0.92-1.25l-0.02-0.03l1.5-0.479c0.01,0.069,0.01,0.14,0.01,0.22C27.918,29.537,27.729,30.067,27.348,30.497z
			 M28.139,28.546l-0.031-0.14l-2.09,0.67l1.301,1.81l0.109-0.1c0.48-0.5,0.74-1.15,0.74-1.83
			C28.168,28.817,28.158,28.676,28.139,28.546z M27.348,30.497l-0.92-1.25l-0.02-0.03l1.5-0.479c0.01,0.069,0.01,0.14,0.01,0.22
			C27.918,29.537,27.729,30.067,27.348,30.497z M27.878,27.737c-0.38-0.72-1.09-1.23-1.89-1.36l-0.15-0.03v2.21l2.11-0.689
			L27.878,27.737z M26.088,28.216v-1.569c0.62,0.14,1.16,0.529,1.49,1.08L26.088,28.216z M26.068,30.096l-0.51-0.689l-1.311,1.81
			l0.13,0.07c0.37,0.19,0.761,0.28,1.181,0.28c0.399,0,0.799-0.101,1.18-0.28l0.13-0.07L26.068,30.096z M24.628,31.126l0.931-1.29
			l0.93,1.28C25.878,31.386,25.198,31.376,24.628,31.126z M25.559,28.577c-0.211,0-0.371,0.17-0.371,0.38
			c0,0.19,0.17,0.36,0.371,0.36c0.199,0,0.369-0.17,0.369-0.36C25.928,28.747,25.768,28.577,25.559,28.577z M25.139,26.376
			c-0.791,0.11-1.5,0.62-1.9,1.36l-0.07,0.13l1.301,0.42l0.469,0.16l0.351,0.109v-2.199L25.139,26.376z M25.038,28.216l-1.5-0.489
			c0.34-0.561,0.89-0.95,1.5-1.08V28.216z M23.008,28.397l-0.029,0.14c-0.021,0.13-0.041,0.27-0.041,0.42
			c0,0.69,0.271,1.34,0.771,1.83l0.101,0.1l0.799-1.109l0.291-0.391l0.209-0.31L23.008,28.397z M23.778,30.497
			c-0.38-0.43-0.591-0.97-0.591-1.54c0-0.08,0.011-0.16,0.021-0.229l1.021,0.329l0.49,0.16L23.778,30.497z M23.008,28.397
			l-0.029,0.14c-0.021,0.13-0.041,0.27-0.041,0.42c0,0.69,0.271,1.34,0.771,1.83l0.101,0.1l0.799-1.109l0.291-0.391l0.209-0.31
			L23.008,28.397z M23.778,30.497c-0.38-0.43-0.591-0.97-0.591-1.54c0-0.08,0.011-0.16,0.021-0.229l1.021,0.329l0.49,0.16
			L23.778,30.497z M25.139,26.376c-0.791,0.11-1.5,0.62-1.9,1.36l-0.07,0.13l1.301,0.42l0.469,0.16l0.351,0.109v-2.199
			L25.139,26.376z M25.038,28.216l-1.5-0.489c0.34-0.561,0.89-0.95,1.5-1.08V28.216z M25.559,28.577c-0.211,0-0.371,0.17-0.371,0.38
			c0,0.19,0.17,0.36,0.371,0.36c0.199,0,0.369-0.17,0.369-0.36C25.928,28.747,25.768,28.577,25.559,28.577z M26.068,30.096
			l-0.51-0.689l-1.311,1.81l0.13,0.07c0.37,0.19,0.761,0.28,1.181,0.28c0.399,0,0.799-0.101,1.18-0.28l0.13-0.07L26.068,30.096z
			 M24.628,31.126l0.931-1.29l0.93,1.28C25.878,31.386,25.198,31.376,24.628,31.126z M27.878,27.737c-0.38-0.72-1.09-1.23-1.89-1.36
			l-0.15-0.03v2.21l2.11-0.689L27.878,27.737z M26.088,28.216v-1.569c0.62,0.14,1.16,0.529,1.49,1.08L26.088,28.216z M28.139,28.546
			l-0.031-0.14l-2.09,0.67l1.301,1.81l0.109-0.1c0.48-0.5,0.74-1.15,0.74-1.83C28.168,28.817,28.158,28.676,28.139,28.546z
			 M27.348,30.497l-0.92-1.25l-0.02-0.03l1.5-0.479c0.01,0.069,0.01,0.14,0.01,0.22C27.918,29.537,27.729,30.067,27.348,30.497z
			 M28.139,28.546l-0.031-0.14l-2.09,0.67l1.301,1.81l0.109-0.1c0.48-0.5,0.74-1.15,0.74-1.83
			C28.168,28.817,28.158,28.676,28.139,28.546z M27.348,30.497l-0.92-1.25l-0.02-0.03l1.5-0.479c0.01,0.069,0.01,0.14,0.01,0.22
			C27.918,29.537,27.729,30.067,27.348,30.497z M27.878,27.737c-0.38-0.72-1.09-1.23-1.89-1.36l-0.15-0.03v2.21l2.11-0.689
			L27.878,27.737z M26.088,28.216v-1.569c0.62,0.14,1.16,0.529,1.49,1.08L26.088,28.216z M26.068,30.096l-0.51-0.689l-1.311,1.81
			l0.13,0.07c0.37,0.19,0.761,0.28,1.181,0.28c0.399,0,0.799-0.101,1.18-0.28l0.13-0.07L26.068,30.096z M24.628,31.126l0.931-1.29
			l0.93,1.28C25.878,31.386,25.198,31.376,24.628,31.126z M25.559,28.577c-0.211,0-0.371,0.17-0.371,0.38
			c0,0.19,0.17,0.36,0.371,0.36c0.199,0,0.369-0.17,0.369-0.36C25.928,28.747,25.768,28.577,25.559,28.577z M25.139,26.376
			c-0.791,0.11-1.5,0.62-1.9,1.36l-0.07,0.13l1.301,0.42l0.469,0.16l0.351,0.109v-2.199L25.139,26.376z M25.038,28.216l-1.5-0.489
			c0.34-0.561,0.89-0.95,1.5-1.08V28.216z M23.008,28.397l-0.029,0.14c-0.021,0.13-0.041,0.27-0.041,0.42
			c0,0.69,0.271,1.34,0.771,1.83l0.101,0.1l0.799-1.109l0.291-0.391l0.209-0.31L23.008,28.397z M23.778,30.497
			c-0.38-0.43-0.591-0.97-0.591-1.54c0-0.08,0.011-0.16,0.021-0.229l1.021,0.329l0.49,0.16L23.778,30.497z M23.008,28.397
			l-0.029,0.14c-0.021,0.13-0.041,0.27-0.041,0.42c0,0.69,0.271,1.34,0.771,1.83l0.101,0.1l0.799-1.109l0.291-0.391l0.209-0.31
			L23.008,28.397z M23.778,30.497c-0.38-0.43-0.591-0.97-0.591-1.54c0-0.08,0.011-0.16,0.021-0.229l1.021,0.329l0.49,0.16
			L23.778,30.497z M25.139,26.376c-0.791,0.11-1.5,0.62-1.9,1.36l-0.07,0.13l1.301,0.42l0.469,0.16l0.351,0.109v-2.199
			L25.139,26.376z M25.038,28.216l-1.5-0.489c0.34-0.561,0.89-0.95,1.5-1.08V28.216z M25.559,28.577c-0.211,0-0.371,0.17-0.371,0.38
			c0,0.19,0.17,0.36,0.371,0.36c0.199,0,0.369-0.17,0.369-0.36C25.928,28.747,25.768,28.577,25.559,28.577z M26.068,30.096
			l-0.51-0.689l-1.311,1.81l0.13,0.07c0.37,0.19,0.761,0.28,1.181,0.28c0.399,0,0.799-0.101,1.18-0.28l0.13-0.07L26.068,30.096z
			 M24.628,31.126l0.931-1.29l0.93,1.28C25.878,31.386,25.198,31.376,24.628,31.126z M27.878,27.737c-0.38-0.72-1.09-1.23-1.89-1.36
			l-0.15-0.03v2.21l2.11-0.689L27.878,27.737z M26.088,28.216v-1.569c0.62,0.14,1.16,0.529,1.49,1.08L26.088,28.216z M28.139,28.546
			l-0.031-0.14l-2.09,0.67l1.301,1.81l0.109-0.1c0.48-0.5,0.74-1.15,0.74-1.83C28.168,28.817,28.158,28.676,28.139,28.546z
			 M27.348,30.497l-0.92-1.25l-0.02-0.03l1.5-0.479c0.01,0.069,0.01,0.14,0.01,0.22C27.918,29.537,27.729,30.067,27.348,30.497z
			 M26.068,30.096l-0.51-0.689l-1.311,1.81l0.13,0.07c0.37,0.19,0.761,0.28,1.181,0.28c0.399,0,0.799-0.101,1.18-0.28l0.13-0.07
			L26.068,30.096z M24.628,31.126l0.931-1.29l0.93,1.28C25.878,31.386,25.198,31.376,24.628,31.126z M28.139,28.546l-0.031-0.14
			l-2.09,0.67l1.301,1.81l0.109-0.1c0.48-0.5,0.74-1.15,0.74-1.83C28.168,28.817,28.158,28.676,28.139,28.546z M27.348,30.497
			l-0.92-1.25l-0.02-0.03l1.5-0.479c0.01,0.069,0.01,0.14,0.01,0.22C27.918,29.537,27.729,30.067,27.348,30.497z M23.008,28.397
			l-0.029,0.14c-0.021,0.13-0.041,0.27-0.041,0.42c0,0.69,0.271,1.34,0.771,1.83l0.101,0.1l0.799-1.109l0.291-0.391l0.209-0.31
			L23.008,28.397z M23.778,30.497c-0.38-0.43-0.591-0.97-0.591-1.54c0-0.08,0.011-0.16,0.021-0.229l1.021,0.329l0.49,0.16
			L23.778,30.497z M25.559,28.577c-0.211,0-0.371,0.17-0.371,0.38c0,0.19,0.17,0.36,0.371,0.36c0.199,0,0.369-0.17,0.369-0.36
			C25.928,28.747,25.768,28.577,25.559,28.577z M27.878,27.737c-0.38-0.72-1.09-1.23-1.89-1.36l-0.15-0.03v2.21l2.11-0.689
			L27.878,27.737z M26.088,28.216v-1.569c0.62,0.14,1.16,0.529,1.49,1.08L26.088,28.216z M25.139,26.376
			c-0.791,0.11-1.5,0.62-1.9,1.36l-0.07,0.13l1.301,0.42l0.469,0.16l0.351,0.109v-2.199L25.139,26.376z M25.038,28.216l-1.5-0.489
			c0.34-0.561,0.89-0.95,1.5-1.08V28.216z"/>
	</g>
	<g>
		<path fill="#FFD900" d="M23.807,30.888l-0.104-0.104c-0.49-0.491-0.761-1.142-0.761-1.832c0-0.148,0.013-0.29,0.036-0.419
			l0.025-0.142l2.105,0.684l-0.207,0.309l-0.299,0.392L23.807,30.888z M23.203,28.722c-0.007,0.073-0.011,0.15-0.011,0.23
			c0,0.574,0.207,1.118,0.586,1.547l0.938-1.285l-0.486-0.153L23.203,28.722z"/>
	</g>
	<g>
		<path fill="#FFD900" d="M25.286,28.554l-0.353-0.104l-0.469-0.161l-1.297-0.42l0.072-0.132c0.4-0.739,1.112-1.25,1.902-1.365
			l0.144-0.021V28.554z M23.536,27.726l1.5,0.494v-1.574C24.428,26.778,23.883,27.17,23.536,27.726z"/>
	</g>
	<g>
		<path fill="#FFD900" d="M25.557,31.568c-0.414,0-0.811-0.096-1.178-0.285l-0.129-0.067l1.306-1.808l0.511,0.693l0.799,1.116
			l-0.131,0.065C26.361,31.469,25.955,31.568,25.557,31.568z M24.627,31.124c0.572,0.252,1.248,0.261,1.861-0.002l-0.93-1.288
			L24.627,31.124z"/>
	</g>
	<g>
		<path fill="#FFD900" d="M25.84,28.557V26.35l0.146,0.023c0.802,0.129,1.509,0.64,1.89,1.366l0.069,0.131L25.84,28.557z
			 M26.09,26.648v1.569l1.49-0.491C27.249,27.18,26.707,26.789,26.09,26.648z"/>
	</g>
	<g>
		<path fill="#FFD900" d="M27.32,30.889l-1.303-1.813l2.094-0.671l0.025,0.141c0.024,0.135,0.036,0.268,0.036,0.407
			c0,0.687-0.266,1.336-0.749,1.83L27.32,30.889z M26.41,29.214l0.021,0.031l0.914,1.253c0.379-0.435,0.577-0.966,0.577-1.546
			c0-0.075-0.004-0.147-0.012-0.22L26.41,29.214z"/>
	</g>
	<g>
		<path fill="#FFD900" d="M23.807,30.888l-0.104-0.104c-0.49-0.491-0.761-1.142-0.761-1.832c0-0.148,0.013-0.29,0.036-0.419
			l0.025-0.142l2.105,0.684l-0.207,0.309l-0.299,0.392L23.807,30.888z M23.203,28.722c-0.007,0.073-0.011,0.15-0.011,0.23
			c0,0.574,0.207,1.118,0.586,1.547l0.938-1.285l-0.486-0.153L23.203,28.722z"/>
	</g>
	<g>
		<path fill="#FFD900" d="M25.286,28.554l-0.353-0.104l-0.469-0.161l-1.297-0.42l0.072-0.132c0.4-0.739,1.112-1.25,1.902-1.365
			l0.144-0.021V28.554z M23.536,27.726l1.5,0.494v-1.574C24.428,26.778,23.883,27.17,23.536,27.726z"/>
	</g>
	<g>
		<path fill="#FFD900" d="M25.557,31.568c-0.414,0-0.811-0.096-1.178-0.285l-0.129-0.067l1.306-1.808l0.511,0.693l0.799,1.116
			l-0.131,0.065C26.361,31.469,25.955,31.568,25.557,31.568z M24.627,31.124c0.572,0.252,1.248,0.261,1.861-0.002l-0.93-1.288
			L24.627,31.124z"/>
	</g>
	<g>
		<path fill="#FFD900" d="M25.84,28.557V26.35l0.146,0.023c0.802,0.129,1.509,0.64,1.89,1.366l0.069,0.131L25.84,28.557z
			 M26.09,26.648v1.569l1.49-0.491C27.249,27.18,26.707,26.789,26.09,26.648z"/>
	</g>
	<g>
		<path fill="#FFD900" d="M27.32,30.889l-1.303-1.813l2.094-0.671l0.025,0.141c0.024,0.135,0.036,0.268,0.036,0.407
			c0,0.687-0.266,1.336-0.749,1.83L27.32,30.889z M26.41,29.214l0.021,0.031l0.914,1.253c0.379-0.435,0.577-0.966,0.577-1.546
			c0-0.075-0.004-0.147-0.012-0.22L26.41,29.214z"/>
	</g>
	<g>
		<path fill="#FFD900" d="M54.698,32.462c-1.935,0-3.509-1.574-3.509-3.51c0-1.941,1.574-3.521,3.509-3.521
			c1.941,0,3.521,1.579,3.521,3.521C58.219,30.888,56.64,32.462,54.698,32.462z M54.698,25.682c-1.798,0-3.259,1.467-3.259,3.271
			c0,1.798,1.461,3.26,3.259,3.26c1.804,0,3.271-1.462,3.271-3.26C57.969,27.149,56.502,25.682,54.698,25.682z M54.698,31.568
			c-0.415,0-0.812-0.096-1.178-0.285l-0.129-0.067l1.306-1.808l0.51,0.693l0.799,1.116l-0.131,0.065
			C55.503,31.469,55.096,31.568,54.698,31.568z M53.768,31.124c0.572,0.252,1.248,0.261,1.862-0.002l-0.931-1.288L53.768,31.124z
			 M56.462,30.889l-1.304-1.813l2.094-0.671l0.025,0.141c0.025,0.135,0.037,0.268,0.037,0.407c0,0.687-0.266,1.336-0.749,1.83
			L56.462,30.889z M55.552,29.214l0.021,0.031l0.915,1.253c0.378-0.435,0.577-0.966,0.577-1.546c0-0.075-0.004-0.147-0.012-0.22
			L55.552,29.214z M52.948,30.888l-0.104-0.104c-0.49-0.491-0.76-1.142-0.76-1.832c0-0.148,0.012-0.29,0.035-0.419l0.025-0.142
			l2.105,0.684l-0.206,0.309l-0.299,0.392L52.948,30.888z M52.345,28.722c-0.007,0.073-0.011,0.15-0.011,0.23
			c0,0.574,0.207,1.118,0.586,1.547l0.938-1.285l-0.486-0.153L52.345,28.722z M54.698,29.316c-0.202,0-0.374-0.166-0.374-0.363
			c0-0.206,0.168-0.374,0.374-0.374s0.374,0.168,0.374,0.374C55.072,29.15,54.901,29.316,54.698,29.316z M54.981,28.557V26.35
			l0.146,0.023c0.802,0.129,1.508,0.64,1.89,1.366l0.069,0.131L54.981,28.557z M55.231,26.648v1.569l1.49-0.491
			C56.39,27.18,55.848,26.789,55.231,26.648z M54.428,28.554l-0.354-0.104l-0.469-0.161l-1.296-0.42l0.071-0.132
			c0.4-0.739,1.112-1.249,1.903-1.365l0.144-0.021V28.554z M52.678,27.726l1.5,0.494v-1.574
			C53.568,26.778,53.023,27.17,52.678,27.726z"/>
	</g>
	<g>
		<path fill="#FFD900" d="M52.948,30.888l-0.104-0.104c-0.49-0.491-0.76-1.142-0.76-1.832c0-0.148,0.012-0.29,0.035-0.419
			l0.025-0.142l2.105,0.684l-0.206,0.309l-0.299,0.392L52.948,30.888z M52.345,28.722c-0.007,0.073-0.011,0.15-0.011,0.23
			c0,0.574,0.207,1.118,0.586,1.547l0.938-1.285l-0.486-0.153L52.345,28.722z"/>
	</g>
	<g>
		<path fill="#FFD900" d="M54.428,28.554l-0.354-0.104l-0.469-0.161l-1.296-0.42l0.071-0.132c0.4-0.739,1.112-1.249,1.903-1.365
			l0.144-0.021V28.554z M52.678,27.726l1.5,0.494v-1.574C53.568,26.778,53.023,27.17,52.678,27.726z"/>
	</g>
	<g>
		<path fill="#FFD900" d="M54.698,31.568c-0.416,0-0.812-0.096-1.178-0.285l-0.129-0.067l1.306-1.808l0.51,0.693l0.799,1.116
			l-0.131,0.065C55.503,31.469,55.096,31.568,54.698,31.568z M53.768,31.124c0.572,0.252,1.248,0.261,1.862-0.002l-0.931-1.288
			L53.768,31.124z"/>
	</g>
	<g>
		<path fill="#FFD900" d="M54.981,28.557V26.35l0.146,0.023c0.802,0.129,1.508,0.64,1.89,1.366l0.069,0.131L54.981,28.557z
			 M55.231,26.648v1.569l1.49-0.491C56.391,27.18,55.848,26.789,55.231,26.648z"/>
	</g>
	<g>
		<path fill="#FFD900" d="M56.462,30.889l-1.304-1.813l2.094-0.671l0.025,0.141c0.025,0.135,0.037,0.268,0.037,0.407
			c0,0.687-0.266,1.336-0.749,1.83L56.462,30.889z M55.552,29.214l0.021,0.031l0.915,1.253c0.378-0.435,0.577-0.966,0.577-1.546
			c0-0.075-0.004-0.147-0.012-0.22L55.552,29.214z"/>
	</g>
	<g>
		<path fill="#FFD900" d="M52.948,30.888l-0.104-0.104c-0.49-0.491-0.76-1.142-0.76-1.832c0-0.148,0.012-0.29,0.035-0.419
			l0.025-0.142l2.105,0.684l-0.206,0.309l-0.299,0.392L52.948,30.888z M52.345,28.722c-0.007,0.073-0.011,0.15-0.011,0.23
			c0,0.574,0.207,1.118,0.586,1.547l0.938-1.285l-0.486-0.153L52.345,28.722z"/>
	</g>
	<g>
		<path fill="#FFD900" d="M54.428,28.554l-0.354-0.104l-0.469-0.161l-1.296-0.42l0.071-0.132c0.4-0.739,1.112-1.249,1.903-1.365
			l0.144-0.021V28.554z M52.678,27.726l1.5,0.494v-1.574C53.568,26.778,53.023,27.17,52.678,27.726z"/>
	</g>
	<g>
		<path fill="#FFD900" d="M54.698,31.568c-0.416,0-0.812-0.096-1.178-0.285l-0.129-0.067l1.306-1.808l0.51,0.693l0.799,1.116
			l-0.131,0.065C55.503,31.469,55.096,31.568,54.698,31.568z M53.768,31.124c0.572,0.252,1.248,0.261,1.862-0.002l-0.931-1.288
			L53.768,31.124z"/>
	</g>
	<g>
		<path fill="#FFD900" d="M54.981,28.557V26.35l0.146,0.023c0.802,0.129,1.508,0.64,1.89,1.366l0.069,0.131L54.981,28.557z
			 M55.231,26.648v1.569l1.49-0.491C56.391,27.18,55.848,26.789,55.231,26.648z"/>
	</g>
	<g>
		<path fill="#FFD900" d="M56.462,30.889l-1.304-1.813l2.094-0.671l0.025,0.141c0.025,0.135,0.037,0.268,0.037,0.407
			c0,0.687-0.266,1.336-0.749,1.83L56.462,30.889z M55.552,29.214l0.021,0.031l0.915,1.253c0.378-0.435,0.577-0.966,0.577-1.546
			c0-0.075-0.004-0.147-0.012-0.22L55.552,29.214z"/>
	</g>
	<path fill="#FFD900" d="M13.818,8.897v9.63h9.949l2.19,7.439l0.71-7.439h3.28v-9.63H13.818z M15.139,12.296h8.92v1h-8.92V12.296z
		 M25.049,16.796h-9.91v-1h9.91V16.796z M25.928,15.046H15.139v-1h10.789V15.046z M27.208,11.546H15.139v-1h12.069V11.546z"/>
	<rect x="48.635" y="10.683" fill="#FFD900" width="2.613" height="4.488"/>
	<rect x="52.553" y="10.108" fill="#FFD900" width="2.613" height="5.063"/>
	<rect x="56.473" y="11.417" fill="#FFD900" width="2.613" height="3.755"/>
	<rect x="60.391" y="8.803" fill="#FFD900" width="2.613" height="6.368"/>
	<g>
		<path fill="#FFD900" d="M57.779,10.608c-0.072,0-0.145-0.016-0.211-0.047l-3.762-1.748l-3.75,0.897
			c-0.088,0.021-0.182,0.019-0.27-0.011L48.48,9.279c-0.262-0.084-0.406-0.366-0.322-0.629c0.085-0.263,0.368-0.408,0.629-0.322
			l1.174,0.378L53.744,7.8c0.107-0.026,0.223-0.016,0.326,0.033l3.633,1.688l3.675-3.057c0.09-0.074,0.203-0.115,0.319-0.115h1.307
			c0.277,0,0.5,0.224,0.5,0.5s-0.223,0.5-0.5,0.5h-1.125l-3.78,3.144C58.007,10.569,57.894,10.608,57.779,10.608z"/>
	</g>
</g>
</svg>
