<?xml version="1.0" encoding="utf-8"?>
<!-- Generator: Adobe Illustrator 16.0.3, SVG Export Plug-In . SVG Version: 6.00 Build 0)  -->
<!DOCTYPE svg PUBLIC "-//W3C//DTD SVG 1.1//EN" "http://www.w3.org/Graphics/SVG/1.1/DTD/svg11.dtd" [
	<!ENTITY ns_flows "http://ns.adobe.com/Flows/1.0/">
	<!ENTITY ns_extend "http://ns.adobe.com/Extensibility/1.0/">
	<!ENTITY ns_ai "http://ns.adobe.com/AdobeIllustrator/10.0/">
	<!ENTITY ns_graphs "http://ns.adobe.com/Graphs/1.0/">
]>
<svg version="1.1" id="Capa_1" xmlns:x="&ns_extend;" xmlns:i="&ns_ai;" xmlns:graph="&ns_graphs;"
	 xmlns="http://www.w3.org/2000/svg" xmlns:xlink="http://www.w3.org/1999/xlink" xmlns:a="http://ns.adobe.com/AdobeSVGViewerExtensions/3.0/"
	 x="0px" y="0px" width="59px" height="49.125px" viewBox="0 0 59 49.125" enable-background="new 0 0 59 49.125"
	 xml:space="preserve">
<g>
	<path fill="#FFD900" d="M3.905,14.942v33.08h51.58v-33.08H3.905z M19.415,28.393h-3.79v3.79h-2.75v-3.79h-3.8v-2.75h3.8v-3.79h2.75
		v3.79h3.79V28.393z M26.056,35.362l3.52-6.95h-3.52l7.319-8.44l-2.71,6.37l3.32-0.08L26.056,35.362z M50.405,28.393h-10.34v-2.75
		h10.34V28.393z"/>
	<rect x="1.325" y="8.942" fill="#FFD900" width="56.15" height="3.95"/>
	<path fill="#FFD900" d="M14.245,4.147v3.42h-6v-3.42c0-1.66,1.34-3,3-3c0.83,0,1.57,0.33,2.12,0.88
		C13.905,2.567,14.245,3.317,14.245,4.147z"/>
	<path fill="#FFD900" d="M50.405,4.147v3.42h-6v-3.42c0-1.66,1.34-3,3-3c0.83,0,1.58,0.33,2.12,0.88
		C50.075,2.567,50.405,3.317,50.405,4.147z"/>
</g>
</svg>
