<?xml version="1.0" encoding="utf-8"?>
<!-- Generator: Adobe Illustrator 16.0.3, SVG Export Plug-In . SVG Version: 6.00 Build 0)  -->
<!DOCTYPE svg PUBLIC "-//W3C//DTD SVG 1.1//EN" "http://www.w3.org/Graphics/SVG/1.1/DTD/svg11.dtd" [
	<!ENTITY ns_flows "http://ns.adobe.com/Flows/1.0/">
	<!ENTITY ns_extend "http://ns.adobe.com/Extensibility/1.0/">
	<!ENTITY ns_ai "http://ns.adobe.com/AdobeIllustrator/10.0/">
	<!ENTITY ns_graphs "http://ns.adobe.com/Graphs/1.0/">
]>
<svg version="1.1" id="Capa_1" xmlns:x="&ns_extend;" xmlns:i="&ns_ai;" xmlns:graph="&ns_graphs;"
	 xmlns="http://www.w3.org/2000/svg" xmlns:xlink="http://www.w3.org/1999/xlink" xmlns:a="http://ns.adobe.com/AdobeSVGViewerExtensions/3.0/"
	 x="0px" y="0px" width="74.5px" height="63px" viewBox="0 0 74.5 63" enable-background="new 0 0 74.5 63" xml:space="preserve">
<g>
	<path fill="#FFD900" d="M17.596,10.072c-0.186,0.334-0.311,0.587-0.357,0.722c-0.13,0.397-0.182,0.596-0.224,0.706
		c-0.229-0.057-0.483-0.156-0.688-0.089c-0.202,0.08-0.238,0.277-0.477,0.339c-0.283,0.057-0.699-0.099-0.977-0.138
		c-0.597-0.099-1.217-0.18-1.813-0.318c-0.959-0.218-1.293-1.112-1.236-2.01c0.063-0.837,0.916-1.114,1.592-1.214
		c0.675-0.121,1.594-0.422,2.229-0.04C16.57,8.597,16.205,10.327,17.596,10.072z"/>
	<path fill="#FFD900" d="M62.789,16.729c-0.051-0.84-2-2.64-2.561-3.19c-0.369-0.36-1.67-1.47-2.1-1.75
		c-0.26-0.16-0.311-0.16-0.38-0.32c-0.04-0.12-0.09-0.32-0.22-0.71c-0.051-0.14-0.17-0.39-0.36-0.72c-1.12-2.03-4.39-7.08-4.66-7.36
		c-0.33-0.32-1.04-0.96-2.06-1.14c-1.01-0.17-11.16-0.7-13.07-0.7c-1.92,0-12.07,0.55-13.08,0.73c-1.02,0.18-1.73,0.81-2.05,1.13
		c-0.271,0.28-3.54,5.34-4.649,7.37c-0.19,0.34-0.311,0.59-0.361,0.72c-0.129,0.4-0.18,0.6-0.219,0.71
		c-0.051,0.11-0.311,0.29-0.41,0.34c-0.021,0.02-0.03,0.03-0.03,0.03c-0.28,0.19-1.42,0.96-2.03,1.61
		c-0.93,0.98-2.52,2.45-2.561,3.29c-0.039,0.84-0.399,1.43-0.31,3.11c0.03,0.81,0.261,3.27,0.48,5.61
		c0.22,2.46,0.46,4.79,0.479,4.97c0.04,0.36-0.08,0.76,0.08,1.07c0.16,0.32,0.561,0.41,1.19,0.4c0.2,0,2.31,0.03,5.22,0.07
		c6.92,0.08,18.27,0.23,18.27,0.23s11.711-0.17,18.601-0.27c2.729-0.04,4.71-0.07,4.89-0.07c0.631,0,1.03-0.08,1.2-0.4
		c0.149-0.31,0.03-0.71,0.07-1.07c0.03-0.25,0.44-4.46,0.71-7.56c0.119-1.37,0.21-2.52,0.24-3.03
		C63.189,18.159,62.829,17.56,62.789,16.729z M58.879,16.109c0.9,0,1.08-0.12,1.26,0.71c0.12,0.54,0.12,1.26,0,1.74
		c-0.359,1.73-2.56,1.73-4,1.73c-2.63,0.01-4.91,0.66-6.979-3.04c1.78-0.53,3.88-0.48,5.67-0.77
		C56.189,16.229,57.509,16.109,58.879,16.109z M22.77,2.949l14.619-0.51l14.59,0.48c0,0,5.271,8.2,4.871,8.2
		c-0.381,0-13.551-0.74-19.471-0.61c-5.91-0.12-19.09,0.64-19.46,0.64C17.52,11.149,22.77,2.949,22.77,2.949z M14.639,16.859
		c0.18-0.83,0.36-0.71,1.25-0.72c1.37,0,2.69,0.13,4.061,0.37c1.8,0.29,3.89,0.23,5.67,0.76c-2.07,3.71-4.35,3.06-6.98,3.06
		c-1.43,0-3.64,0-4-1.73C14.52,18.12,14.52,17.399,14.639,16.859z M24.029,30.229c-0.881,0.32-2.9,0.25-3.86,0.25
		c-0.351,0-0.7,0-1.04-0.01c-0.84-0.01-1.68-0.03-2.529-0.04c-0.381-0.01-0.75-0.01-1.141-0.01c-1.43,0-1.67-0.48-1.35-1.91
		c0.319-1.04,0.119-2.02,1.189-2.42c0.391-0.14,1.689-0.2,3.301-0.19c0.17,0,0.35,0,0.529,0.01c0.53,0.01,1.09,0.02,1.66,0.05
		c0.34,0.01,0.68,0.03,1.02,0.05c0.131,0,0.25,0.01,0.37,0.02c0.19,0.01,0.37,0.03,0.55,0.04c0.181,0.01,0.36,0.03,0.541,0.04
		c0.18,0.02,0.35,0.04,0.52,0.05c0.26,0.02,0.51,0.05,0.75,0.08c0.16,0.02,0.32,0.04,0.46,0.06c0.13,0.02,0.25,0.04,0.37,0.05
		c0.06,0.01,0.119,0.02,0.17,0.03c0.08,0.01,0.15,0.03,0.22,0.04c0.03,0.01,0.06,0.01,0.08,0.01c0.05,0.01,0.101,0.02,0.149,0.03
		c0.08,0.02,0.15,0.03,0.221,0.05C25.809,27.859,25.459,29.75,24.029,30.229z M46.988,28.399c-0.51,1.43-2.5,1.24-2.699,1.24
		l-13.78,0.01c-0.19,0-2.19,0.2-2.7-1.23c-0.529-1.44-1.32-3.75-1.6-4.9c-0.3-1.21-1.28-3.29,4.58-3.16
		c3.02,0.06,5.199,0.06,6.6,0.04c1.41,0.02,3.59,0.02,6.61-0.05c5.851-0.14,4.88,1.94,4.58,3.15
		C48.299,24.649,47.509,26.969,46.988,28.399z M59.339,30.379c-1.14,0-2.229,0.04-3.34,0.06c-0.46,0.01-0.91,0.01-1.37,0.01
		c-0.96,0-2.98,0.08-3.85-0.24c-1.43-0.48-1.801-2.37-2.19-3.72c0.101-0.03,0.2-0.05,0.31-0.07c0.141-0.02,0.301-0.05,0.461-0.08
		c0.1-0.01,0.209-0.03,0.319-0.05c0.04,0,0.07,0,0.11-0.01c0.14-0.02,0.3-0.04,0.449-0.06h0.041c0.149-0.02,0.31-0.04,0.47-0.06
		c0.39-0.04,0.8-0.08,1.229-0.11c0.121,0,0.24-0.01,0.36-0.02c0.649-0.05,1.32-0.09,1.979-0.11c0.17-0.01,0.341-0.02,0.511-0.03
		h0.37c0.15-0.01,0.289-0.01,0.439-0.02h0.35c1.711-0.03,3.101,0.04,3.5,0.18c1.07,0.4,0.881,1.38,1.201,2.42
		C61.009,29.899,60.77,30.379,59.339,30.379z"/>
	<path fill="#FFD900" d="M19.129,33v2.75c0,0.26-0.21,0.479-0.47,0.479l-6.011,0.01c-0.27,0-0.479-0.22-0.479-0.479v-3.33
		c0.521,0.479,1.28,0.5,1.7,0.5c0.01,0,5.25,0.07,5.25,0.07H19.129z"/>
	<path fill="#FFD900" d="M62.969,31.959v3.75c0,0.271-0.21,0.48-0.48,0.48l-6.01,0.01c-0.26,0-0.479-0.22-0.479-0.48v-2.76
		c2.84-0.039,4.851-0.07,4.89-0.07C61.359,32.889,62.449,32.889,62.969,31.959z"/>
	<path fill="#FFD900" d="M18.588,28.193c0,1.006-0.814,1.821-1.82,1.824c-1.004,0-1.821-0.814-1.822-1.821
		c0-1.006,0.814-1.823,1.822-1.822C17.77,26.373,18.586,27.188,18.588,28.193z"/>
	<path fill="#FFD900" d="M61.709,11.251c-0.596,0.139-1.22,0.221-1.815,0.321c-0.278,0.039-0.692,0.197-0.975,0.14
		c-0.239-0.062-0.276-0.257-0.478-0.338c-0.207-0.067-0.459,0.034-0.688,0.092c-0.043-0.111-0.097-0.312-0.227-0.708
		c-0.047-0.133-0.17-0.385-0.358-0.721c1.39,0.251,1.021-1.476,1.948-2.046c0.633-0.383,1.552-0.081,2.23,0.038
		c0.674,0.099,1.529,0.375,1.59,1.211C62.996,10.135,62.664,11.028,61.709,11.251z"/>
	<circle fill="#FFD900" cx="20.424" cy="28.192" r="1.298"/>
	<path fill="#FFD900" d="M59.73,28.157c0.004,1.004-0.811,1.823-1.82,1.823c-1.002,0.001-1.82-0.814-1.821-1.821
		c-0.003-1.003,0.815-1.82,1.819-1.822C58.916,26.337,59.732,27.15,59.73,28.157z"/>
	<circle fill="#FFD900" cx="54.073" cy="28.162" r="1.298"/>
	<rect x="1.593" y="57.379" fill="#FFD900" width="13.17" height="4.75"/>
	<polygon fill="#FFD900" points="6.053,56.379 6.053,16.129 10.303,16.129 10.303,37.199 20.732,37.199 20.732,38.859 
		10.303,38.859 10.303,56.379 	"/>
	<rect x="60.33" y="57.41" fill="#FFD900" width="13.17" height="4.75"/>
	<polygon fill="#FFD900" points="64.791,56.41 64.791,38.891 54.36,38.891 54.36,37.23 64.791,37.23 64.791,16.161 69.041,16.161 
		69.041,56.41 	"/>
</g>
</svg>
