<?xml version="1.0" encoding="utf-8"?>
<!-- Generator: Adobe Illustrator 16.0.3, SVG Export Plug-In . SVG Version: 6.00 Build 0)  -->
<!DOCTYPE svg PUBLIC "-//W3C//DTD SVG 1.1//EN" "http://www.w3.org/Graphics/SVG/1.1/DTD/svg11.dtd" [
	<!ENTITY ns_flows "http://ns.adobe.com/Flows/1.0/">
	<!ENTITY ns_extend "http://ns.adobe.com/Extensibility/1.0/">
	<!ENTITY ns_ai "http://ns.adobe.com/AdobeIllustrator/10.0/">
	<!ENTITY ns_graphs "http://ns.adobe.com/Graphs/1.0/">
]>
<svg version="1.1" id="Capa_1" xmlns:x="&ns_extend;" xmlns:i="&ns_ai;" xmlns:graph="&ns_graphs;"
	 xmlns="http://www.w3.org/2000/svg" xmlns:xlink="http://www.w3.org/1999/xlink" xmlns:a="http://ns.adobe.com/AdobeSVGViewerExtensions/3.0/"
	 x="0px" y="0px" width="60.5px" height="63px" viewBox="0 0 60.5 63" enable-background="new 0 0 60.5 63" xml:space="preserve">
<g>
	<path fill="#FFD900" d="M57.541,43.912c-2.771-4.029-7.68-5.699-12.149-4.52l-8.34-8.34l-1.761,1.76l5.601,5.6
		c0.799,0.801,0.799,2.09,0,2.891c-0.4,0.4-0.92,0.6-1.451,0.6c-0.52,0-1.039-0.199-1.439-0.6l-5.6-5.61l-1.76,1.771l7.619,7.619
		c-1.869,3.58-1.75,8.041,0.69,11.601c2.36,3.44,6.28,5.149,10.16,4.86l-5.101-7.431c-0.699-1.021-0.439-2.399,0.58-3.11
		l5.631-3.869c1.02-0.7,2.41-0.44,3.119,0.57l5.09,7.43C60.101,51.623,59.901,47.342,57.541,43.912z M22.19,20.553
		c0.521,0,1.051,0.199,1.441,0.6l6.25,6.25l1.76-1.76l-8.11-8.109c1.78-3.58,1.58-7.99-0.87-11.49c-2.4-3.41-6.33-5.09-10.2-4.75
		l5.171,7.369c0.709,1.021,0.459,2.41-0.551,3.121l-5.59,3.93c-1.02,0.709-2.41,0.47-3.12-0.551L3.19,7.783
		c-1.629,3.539-1.389,7.809,1,11.219c2.841,4.041,7.841,5.65,12.351,4.36l8.69,8.69l1.77-1.76l-6.25-6.25
		c-0.8-0.801-0.8-2.09,0-2.891C21.142,20.752,21.671,20.553,22.19,20.553z"/>
	<path fill="#FFD900" d="M28.671,41.703c-0.379,0.379-0.996,0.379-1.375,0l-6.307-6.307c-0.38-0.38-0.38-0.995,0-1.375l0.338-0.338
		c0.379-0.379,0.995-0.379,1.375,0l6.307,6.307c0.379,0.38,0.379,0.996,0,1.376L28.671,41.703z"/>
	<path fill="#FFD900" d="M25.871,43.103l-13.78,15.03l-1.699,1.85c-0.53,0.53-1.131,0.93-1.791,1.189
		c-0.5,0.211-1.01,0.33-1.529,0.371c-0.17,0.02-0.34,0.029-0.52,0.029c-1.391,0.01-2.781-0.52-3.841-1.58
		c-2.13-2.13-2.13-5.57,0-7.689l1.841-1.69l15.029-13.79L25.871,43.103z"/>
	<path fill="#FFD900" d="M54.101,10.992l-2.619,4.12l-2.32,0.99L28.351,36.922l-2.58-2.58l20.82-20.819l0.99-2.31l4.12-2.621
		l0.22,0.221l-3.039,2.54c-0.531,0.53-0.291,1.67,0.239,2.21c0.55,0.54,1.72,0.859,2.261,0.32l2.489-3.12L54.101,10.992z"/>
</g>
</svg>
