<?xml version="1.0" encoding="utf-8"?>
<!-- Generator: Adobe Illustrator 16.0.3, SVG Export Plug-In . SVG Version: 6.00 Build 0)  -->
<!DOCTYPE svg PUBLIC "-//W3C//DTD SVG 1.1//EN" "http://www.w3.org/Graphics/SVG/1.1/DTD/svg11.dtd" [
	<!ENTITY ns_flows "http://ns.adobe.com/Flows/1.0/">
	<!ENTITY ns_extend "http://ns.adobe.com/Extensibility/1.0/">
	<!ENTITY ns_ai "http://ns.adobe.com/AdobeIllustrator/10.0/">
	<!ENTITY ns_graphs "http://ns.adobe.com/Graphs/1.0/">
]>
<svg version="1.1" id="Capa_1" xmlns:x="&ns_extend;" xmlns:i="&ns_ai;" xmlns:graph="&ns_graphs;"
	 xmlns="http://www.w3.org/2000/svg" xmlns:xlink="http://www.w3.org/1999/xlink" xmlns:a="http://ns.adobe.com/AdobeSVGViewerExtensions/3.0/"
	 x="0px" y="0px" width="46.5px" height="70.978px" viewBox="0 0 46.5 70.978" enable-background="new 0 0 46.5 70.978"
	 xml:space="preserve">
<g>
	<path fill="#FFD900" d="M33.519,41.514c-1.401,2.803-5.559,4.848-10.472,4.848c-5.072,0-9.351-2.186-10.593-5.138l2.27-0.767
		v-4.063c2.467,2.194,5.475,3.392,8.548,3.392c2.924,0,5.708-1.038,8.099-3.018v3.877L33.519,41.514z"/>
	<path fill="#FFD900" d="M38.581,18.879l-1.672-0.467l-0.084-0.027c-0.158-0.057-0.514-0.158-1.252-0.271l-1.046,1.579l-0.037,0.074
		l-0.047,0.047l-0.158,0.252c-0.084,0.131-0.159,0.253-0.234,0.364c-0.607,0.888-1.083,1.384-2.476,1.384h-0.42L30.949,21.7
		c-0.41-0.215-3.091-0.626-7.678-0.626c-4.428,0-7.184,0.374-7.66,0.626l-0.205,0.113h-0.421c-1.43,0-1.896-0.515-2.513-1.449
		c-0.065-0.102-0.131-0.205-0.206-0.317l-0.149-0.233l-0.046-0.036l-0.047-0.095l-1.037-1.569c-0.747,0.113-1.103,0.215-1.261,0.263
		l-0.084,0.036l-1.616,0.317c-0.43,0.981-0.579,2.354-0.355,3.84c0.29,1.943,1.159,3.503,2.158,4.092
		c0.103,0.065,0.206,0.122,0.318,0.158c0.84,3.307,2.456,6.185,4.576,8.296c2.346,2.345,5.315,3.736,8.548,3.736
		c3.026,0,5.829-1.224,8.099-3.316c2.354-2.148,4.147-5.194,5.045-8.734c1.13-0.42,2.139-2.102,2.466-4.231
		C39.086,21.159,38.955,19.842,38.581,18.879z M37.955,22.438c-0.298,1.924-1.177,3.231-1.868,3.484l-0.458,0.178l-0.121,0.467
		c-0.831,3.288-2.521,6.23-4.764,8.276c-2.186,2.009-4.764,3.074-7.473,3.074c-2.896,0-5.624-1.197-7.885-3.467
		c-2.045-2.036-3.54-4.755-4.334-7.865l-0.13-0.494l-0.486-0.159c-0.01,0-0.038-0.02-0.103-0.057
		c-0.664-0.393-1.467-1.625-1.737-3.446c-0.159-1.057-0.112-2.083,0.121-2.886l1.205-0.234l0.093-0.047
		c0.065-0.019,0.225-0.065,0.533-0.121l0.663,1.009l0.112,0.224l0.093,0.074l0.262,0.411c0.691,1.038,1.401,1.888,3.307,1.888h0.663
		l0.412-0.225c0.308-0.131,2.671-0.514,7.211-0.514c4.492,0,6.913,0.392,7.276,0.532l0.364,0.206h0.663
		c1.868,0,2.579-0.813,3.251-1.793l0.355-0.552l0.028-0.038l0.112-0.177l0.69-1.046c0.29,0.056,0.439,0.103,0.504,0.121L36.62,19.3
		l1.233,0.346C38.059,20.439,38.105,21.43,37.955,22.438z"/>
	<polygon fill="#FFD900" points="2.132,60.747 2.319,60.747 10.147,60.747 10.147,53.873 36.125,53.873 36.125,60.747 
		44.009,60.747 44.009,67.978 2.086,67.978 2.086,60.747 	"/>
	<path fill="#FFD900" d="M3.066,42.644v17.17h6.146V40.738L3.066,42.644z M6.14,58.842c-1.103,0-2-0.897-2-2.008
		c0-1.104,0.897-2,2-2c1.111,0,2.008,0.896,2.008,2C8.147,57.944,7.251,58.842,6.14,58.842z"/>
	<path fill="#FFD900" d="M37.059,40.738v19.075h6.146v-17.17L37.059,40.738z M40.132,58.842c-1.11,0-1.998-0.897-1.998-2.008
		c0-1.104,0.888-2,1.998-2c1.103,0,1.999,0.896,1.999,2C42.131,57.944,41.234,58.842,40.132,58.842z"/>
	<path fill="#FFD900" d="M37.582,12.106v5.718c0-0.262-0.822-0.496-2.26-0.69c-0.066-0.011-0.141-0.02-0.206-0.029l-1.383,2.093
		c-0.01,0.009-0.01,0.019-0.019,0.027c-0.878,1.337-0.972,1.654-2.14,1.654h-0.187c-0.785-0.421-4.129-0.739-8.117-0.739
		c-3.979,0-7.296,0.309-8.099,0.739h-0.188c-1.177,0-1.271-0.317-2.139-1.654c-0.01-0.009-0.01-0.019-0.019-0.027l-1.393-2.093
		c-0.065,0.01-0.14,0.019-0.205,0.029c-1.429,0.194-2.261,0.429-2.261,0.69v-5.718c0-6.268,6.399-10.518,14.302-10.518
		S37.582,5.839,37.582,12.106z"/>
</g>
</svg>
