<?xml version="1.0" encoding="utf-8"?>
<!-- Generator: Adobe Illustrator 16.0.3, SVG Export Plug-In . SVG Version: 6.00 Build 0)  -->
<!DOCTYPE svg PUBLIC "-//W3C//DTD SVG 1.1//EN" "http://www.w3.org/Graphics/SVG/1.1/DTD/svg11.dtd" [
	<!ENTITY ns_flows "http://ns.adobe.com/Flows/1.0/">
	<!ENTITY ns_extend "http://ns.adobe.com/Extensibility/1.0/">
	<!ENTITY ns_ai "http://ns.adobe.com/AdobeIllustrator/10.0/">
	<!ENTITY ns_graphs "http://ns.adobe.com/Graphs/1.0/">
]>
<svg version="1.1" id="Capa_1" xmlns:x="&ns_extend;" xmlns:i="&ns_ai;" xmlns:graph="&ns_graphs;"
	 xmlns="http://www.w3.org/2000/svg" xmlns:xlink="http://www.w3.org/1999/xlink" xmlns:a="http://ns.adobe.com/AdobeSVGViewerExtensions/3.0/"
	 x="0px" y="0px" width="44.625px" height="67px" viewBox="0 0 44.625 67" enable-background="new 0 0 44.625 67"
	 xml:space="preserve">
<g>
	<path fill="#FFD900" d="M42.734,31.34l-0.129-0.16l-0.031-0.029L25.255,10.16l-0.48-0.58c-0.34-0.3-0.79-0.47-1.28-0.47h-6V7.65
		H8.166v1.46h-5c-1.101,0-2,0.89-2,2V62.27c0,1.111,0.899,2,2,2h38c1.1,0,2-0.889,2-2V32.561
		C43.166,32.09,43.006,31.67,42.734,31.34z M36.294,57.811H7.375V36.69h28.92V57.811z M26.666,30.95l-1.171-14.39l11.171,14
		l0.619,0.779L26.666,30.95z"/>
	<path fill="#FFD900" d="M25.256,10.159l-0.479-0.58C24.976,9.738,25.136,9.939,25.256,10.159z"/>
	<rect x="7.375" y="2.355" fill="#FFD900" width="10.917" height="4.292"/>
	<path fill="#FFD900" d="M26.315,47.17l-0.08-0.119l-4.06-7.25l-4.301,7.64c-0.4,0.7-0.609,1.51-0.609,2.37
		c0,2.709,2.199,4.89,4.91,4.89c2.709,0,4.899-2.181,4.899-4.89C27.075,48.84,26.794,47.93,26.315,47.17z M21.185,53.23
		c-0.34,0.46-1.01,0.05-1.41-0.17c-0.48-0.26-1.41-1.021-1.33-1.68c0.141-0.931,1.07-0.301,1.6,0.139
		C20.745,52.16,21.335,53.04,21.185,53.23z"/>
</g>
</svg>
